<?xml version="1.0" encoding="utf-8" standalone="no"?>
<!DOCTYPE svg PUBLIC "-//W3C//DTD SVG 1.1//EN"
  "http://www.w3.org/Graphics/SVG/1.1/DTD/svg11.dtd">
<svg xmlns:xlink="http://www.w3.org/1999/xlink" width="513.613281pt" height="310.75875pt" viewBox="0 0 513.613281 310.75875" xmlns="http://www.w3.org/2000/svg" version="1.1">
 <metadata>
  <rdf:RDF xmlns:dc="http://purl.org/dc/elements/1.1/" xmlns:cc="http://creativecommons.org/ns#" xmlns:rdf="http://www.w3.org/1999/02/22-rdf-syntax-ns#">
   <cc:Work>
    <dc:type rdf:resource="http://purl.org/dc/dcmitype/StillImage"/>
    <dc:date>2026-08-14T06:12:53.330415</dc:date>
    <dc:format>image/svg+xml</dc:format>
    <dc:creator>
     <cc:Agent>
      <dc:title>Matplotlib v3.11.1, https://matplotlib.org/</dc:title>
     </cc:Agent>
    </dc:creator>
   </cc:Work>
  </rdf:RDF>
 </metadata>
 <defs>
  <style type="text/css">*{stroke-linejoin: round; stroke-linecap: butt}</style>
 </defs>
 <g id="figure_1">
  <g id="patch_1">
   <path d="M 0 310.75875 
L 513.613281 310.75875 
L 513.613281 0 
L 0 0 
z
" style="fill: #ffffff"/>
  </g>
  <g id="axes_1">
   <g id="patch_2">
    <path d="M 60.013281 272.557969 
L 506.413281 272.557969 
L 506.413281 23.077969 
L 60.013281 23.077969 
z
" style="fill: #ffffff"/>
   </g>
   <g id="matplotlib.axis_1">
    <g id="xtick_1">
     <g id="line2d_1">
      <path d="M 80.227398 272.557969 
L 80.227398 23.077969 
" clip-path="url(#p6340da121b)" style="fill: none; stroke: #d9dee3; stroke-width: 0.7; stroke-linecap: square"/>
     </g>
     <g id="line2d_2">
      <defs>
       <path id="m4f83670f8a" d="M 0 0 
L 0 3.5 
" style="stroke: #000000; stroke-width: 0.8"/>
      </defs>
      <g>
       <use xlink:href="#m4f83670f8a" x="80.227398" y="272.557969" style="stroke: #000000; stroke-width: 0.8"/>
      </g>
     </g>
     <g id="text_1">
      <!-- 0.0 -->
      <g transform="translate(72.275835 287.155625) scale(0.1 -0.1)">
       <defs>
        <path id="DejaVuSans-13" d="M 2034 4250 
Q 1547 4250 1301 3770 
Q 1056 3291 1056 2328 
Q 1056 1369 1301 889 
Q 1547 409 2034 409 
Q 2525 409 2770 889 
Q 3016 1369 3016 2328 
Q 3016 3291 2770 3770 
Q 2525 4250 2034 4250 
z
M 2034 4750 
Q 2819 4750 3233 4129 
Q 3647 3509 3647 2328 
Q 3647 1150 3233 529 
Q 2819 -91 2034 -91 
Q 1250 -91 836 529 
Q 422 1150 422 2328 
Q 422 3509 836 4129 
Q 1250 4750 2034 4750 
z
" transform="scale(0.015625)"/>
        <path id="DejaVuSans-11" d="M 684 794 
L 1344 794 
L 1344 0 
L 684 0 
L 684 794 
z
" transform="scale(0.015625)"/>
       </defs>
       <use xlink:href="#DejaVuSans-13"/>
       <use xlink:href="#DejaVuSans-11" transform="translate(63.625 0)"/>
       <use xlink:href="#DejaVuSans-13" transform="translate(95.40625 0)"/>
      </g>
     </g>
    </g>
    <g id="xtick_2">
     <g id="line2d_3">
      <path d="M 174.302075 272.557969 
L 174.302075 23.077969 
" clip-path="url(#p6340da121b)" style="fill: none; stroke: #d9dee3; stroke-width: 0.7; stroke-linecap: square"/>
     </g>
     <g id="line2d_4">
      <g>
       <use xlink:href="#m4f83670f8a" x="174.302075" y="272.557969" style="stroke: #000000; stroke-width: 0.8"/>
      </g>
     </g>
     <g id="text_2">
      <!-- 0.1 -->
      <g transform="translate(166.350512 287.155625) scale(0.1 -0.1)">
       <defs>
        <path id="DejaVuSans-14" d="M 794 531 
L 1825 531 
L 1825 4091 
L 703 3866 
L 703 4441 
L 1819 4666 
L 2450 4666 
L 2450 531 
L 3481 531 
L 3481 0 
L 794 0 
L 794 531 
z
" transform="scale(0.015625)"/>
       </defs>
       <use xlink:href="#DejaVuSans-13"/>
       <use xlink:href="#DejaVuSans-11" transform="translate(63.625 0)"/>
       <use xlink:href="#DejaVuSans-14" transform="translate(95.40625 0)"/>
      </g>
     </g>
    </g>
    <g id="xtick_3">
     <g id="line2d_5">
      <path d="M 268.376752 272.557969 
L 268.376752 23.077969 
" clip-path="url(#p6340da121b)" style="fill: none; stroke: #d9dee3; stroke-width: 0.7; stroke-linecap: square"/>
     </g>
     <g id="line2d_6">
      <g>
       <use xlink:href="#m4f83670f8a" x="268.376752" y="272.557969" style="stroke: #000000; stroke-width: 0.8"/>
      </g>
     </g>
     <g id="text_3">
      <!-- 0.2 -->
      <g transform="translate(260.425189 287.155625) scale(0.1 -0.1)">
       <defs>
        <path id="DejaVuSans-15" d="M 1228 531 
L 3431 531 
L 3431 0 
L 469 0 
L 469 531 
Q 828 903 1448 1529 
Q 2069 2156 2228 2338 
Q 2531 2678 2651 2914 
Q 2772 3150 2772 3378 
Q 2772 3750 2511 3984 
Q 2250 4219 1831 4219 
Q 1534 4219 1204 4116 
Q 875 4013 500 3803 
L 500 4441 
Q 881 4594 1212 4672 
Q 1544 4750 1819 4750 
Q 2544 4750 2975 4387 
Q 3406 4025 3406 3419 
Q 3406 3131 3298 2873 
Q 3191 2616 2906 2266 
Q 2828 2175 2409 1742 
Q 1991 1309 1228 531 
z
" transform="scale(0.015625)"/>
       </defs>
       <use xlink:href="#DejaVuSans-13"/>
       <use xlink:href="#DejaVuSans-11" transform="translate(63.625 0)"/>
       <use xlink:href="#DejaVuSans-15" transform="translate(95.40625 0)"/>
      </g>
     </g>
    </g>
    <g id="xtick_4">
     <g id="line2d_7">
      <path d="M 362.451428 272.557969 
L 362.451428 23.077969 
" clip-path="url(#p6340da121b)" style="fill: none; stroke: #d9dee3; stroke-width: 0.7; stroke-linecap: square"/>
     </g>
     <g id="line2d_8">
      <g>
       <use xlink:href="#m4f83670f8a" x="362.451428" y="272.557969" style="stroke: #000000; stroke-width: 0.8"/>
      </g>
     </g>
     <g id="text_4">
      <!-- 0.3 -->
      <g transform="translate(354.499866 287.155625) scale(0.1 -0.1)">
       <defs>
        <path id="DejaVuSans-16" d="M 2597 2516 
Q 3050 2419 3304 2112 
Q 3559 1806 3559 1356 
Q 3559 666 3084 287 
Q 2609 -91 1734 -91 
Q 1441 -91 1130 -33 
Q 819 25 488 141 
L 488 750 
Q 750 597 1062 519 
Q 1375 441 1716 441 
Q 2309 441 2620 675 
Q 2931 909 2931 1356 
Q 2931 1769 2642 2001 
Q 2353 2234 1838 2234 
L 1294 2234 
L 1294 2753 
L 1863 2753 
Q 2328 2753 2575 2939 
Q 2822 3125 2822 3475 
Q 2822 3834 2567 4026 
Q 2313 4219 1838 4219 
Q 1578 4219 1281 4162 
Q 984 4106 628 3988 
L 628 4550 
Q 988 4650 1302 4700 
Q 1616 4750 1894 4750 
Q 2613 4750 3031 4423 
Q 3450 4097 3450 3541 
Q 3450 3153 3228 2886 
Q 3006 2619 2597 2516 
z
" transform="scale(0.015625)"/>
       </defs>
       <use xlink:href="#DejaVuSans-13"/>
       <use xlink:href="#DejaVuSans-11" transform="translate(63.625 0)"/>
       <use xlink:href="#DejaVuSans-16" transform="translate(95.40625 0)"/>
      </g>
     </g>
    </g>
    <g id="xtick_5">
     <g id="line2d_9">
      <path d="M 456.526105 272.557969 
L 456.526105 23.077969 
" clip-path="url(#p6340da121b)" style="fill: none; stroke: #d9dee3; stroke-width: 0.7; stroke-linecap: square"/>
     </g>
     <g id="line2d_10">
      <g>
       <use xlink:href="#m4f83670f8a" x="456.526105" y="272.557969" style="stroke: #000000; stroke-width: 0.8"/>
      </g>
     </g>
     <g id="text_5">
      <!-- 0.4 -->
      <g transform="translate(448.574543 287.155625) scale(0.1 -0.1)">
       <defs>
        <path id="DejaVuSans-17" d="M 2419 4116 
L 825 1625 
L 2419 1625 
L 2419 4116 
z
M 2253 4666 
L 3047 4666 
L 3047 1625 
L 3713 1625 
L 3713 1100 
L 3047 1100 
L 3047 0 
L 2419 0 
L 2419 1100 
L 313 1100 
L 313 1709 
L 2253 4666 
z
" transform="scale(0.015625)"/>
       </defs>
       <use xlink:href="#DejaVuSans-13"/>
       <use xlink:href="#DejaVuSans-11" transform="translate(63.625 0)"/>
       <use xlink:href="#DejaVuSans-17" transform="translate(95.40625 0)"/>
      </g>
     </g>
    </g>
    <g id="text_6">
     <!-- Bounding-box area / fixed ROI area -->
     <g transform="translate(195.616406 301.156406) scale(0.1 -0.1)">
      <defs>
       <path id="DejaVuSans-25" d="M 1259 2228 
L 1259 519 
L 2272 519 
Q 2781 519 3026 730 
Q 3272 941 3272 1375 
Q 3272 1813 3026 2020 
Q 2781 2228 2272 2228 
L 1259 2228 
z
M 1259 4147 
L 1259 2741 
L 2194 2741 
Q 2656 2741 2882 2914 
Q 3109 3088 3109 3444 
Q 3109 3797 2882 3972 
Q 2656 4147 2194 4147 
L 1259 4147 
z
M 628 4666 
L 2241 4666 
Q 2963 4666 3353 4366 
Q 3744 4066 3744 3513 
Q 3744 3084 3544 2831 
Q 3344 2578 2956 2516 
Q 3422 2416 3680 2098 
Q 3938 1781 3938 1306 
Q 3938 681 3513 340 
Q 3088 0 2303 0 
L 628 0 
L 628 4666 
z
" transform="scale(0.015625)"/>
       <path id="DejaVuSans-52" d="M 1959 3097 
Q 1497 3097 1228 2736 
Q 959 2375 959 1747 
Q 959 1119 1226 758 
Q 1494 397 1959 397 
Q 2419 397 2687 759 
Q 2956 1122 2956 1747 
Q 2956 2369 2687 2733 
Q 2419 3097 1959 3097 
z
M 1959 3584 
Q 2709 3584 3137 3096 
Q 3566 2609 3566 1747 
Q 3566 888 3137 398 
Q 2709 -91 1959 -91 
Q 1206 -91 779 398 
Q 353 888 353 1747 
Q 353 2609 779 3096 
Q 1206 3584 1959 3584 
z
" transform="scale(0.015625)"/>
       <path id="DejaVuSans-58" d="M 544 1381 
L 544 3500 
L 1119 3500 
L 1119 1403 
Q 1119 906 1312 657 
Q 1506 409 1894 409 
Q 2359 409 2629 706 
Q 2900 1003 2900 1516 
L 2900 3500 
L 3475 3500 
L 3475 0 
L 2900 0 
L 2900 538 
Q 2691 219 2414 64 
Q 2138 -91 1772 -91 
Q 1169 -91 856 284 
Q 544 659 544 1381 
z
M 1991 3584 
L 1991 3584 
z
" transform="scale(0.015625)"/>
       <path id="DejaVuSans-51" d="M 3513 2113 
L 3513 0 
L 2938 0 
L 2938 2094 
Q 2938 2591 2744 2837 
Q 2550 3084 2163 3084 
Q 1697 3084 1428 2787 
Q 1159 2491 1159 1978 
L 1159 0 
L 581 0 
L 581 3500 
L 1159 3500 
L 1159 2956 
Q 1366 3272 1645 3428 
Q 1925 3584 2291 3584 
Q 2894 3584 3203 3211 
Q 3513 2838 3513 2113 
z
" transform="scale(0.015625)"/>
       <path id="DejaVuSans-47" d="M 2906 2969 
L 2906 4863 
L 3481 4863 
L 3481 0 
L 2906 0 
L 2906 525 
Q 2725 213 2448 61 
Q 2172 -91 1784 -91 
Q 1150 -91 751 415 
Q 353 922 353 1747 
Q 353 2572 751 3078 
Q 1150 3584 1784 3584 
Q 2172 3584 2448 3432 
Q 2725 3281 2906 2969 
z
M 947 1747 
Q 947 1113 1208 752 
Q 1469 391 1925 391 
Q 2381 391 2643 752 
Q 2906 1113 2906 1747 
Q 2906 2381 2643 2742 
Q 2381 3103 1925 3103 
Q 1469 3103 1208 2742 
Q 947 2381 947 1747 
z
" transform="scale(0.015625)"/>
       <path id="DejaVuSans-4c" d="M 603 3500 
L 1178 3500 
L 1178 0 
L 603 0 
L 603 3500 
z
M 603 4863 
L 1178 4863 
L 1178 4134 
L 603 4134 
L 603 4863 
z
" transform="scale(0.015625)"/>
       <path id="DejaVuSans-4a" d="M 2906 1791 
Q 2906 2416 2648 2759 
Q 2391 3103 1925 3103 
Q 1463 3103 1205 2759 
Q 947 2416 947 1791 
Q 947 1169 1205 825 
Q 1463 481 1925 481 
Q 2391 481 2648 825 
Q 2906 1169 2906 1791 
z
M 3481 434 
Q 3481 -459 3084 -895 
Q 2688 -1331 1869 -1331 
Q 1566 -1331 1297 -1286 
Q 1028 -1241 775 -1147 
L 775 -588 
Q 1028 -725 1275 -790 
Q 1522 -856 1778 -856 
Q 2344 -856 2625 -561 
Q 2906 -266 2906 331 
L 2906 616 
Q 2728 306 2450 153 
Q 2172 0 1784 0 
Q 1141 0 747 490 
Q 353 981 353 1791 
Q 353 2603 747 3093 
Q 1141 3584 1784 3584 
Q 2172 3584 2450 3431 
Q 2728 3278 2906 2969 
L 2906 3500 
L 3481 3500 
L 3481 434 
z
" transform="scale(0.015625)"/>
       <path id="DejaVuSans-10" d="M 313 2009 
L 1997 2009 
L 1997 1497 
L 313 1497 
L 313 2009 
z
" transform="scale(0.015625)"/>
       <path id="DejaVuSans-45" d="M 3116 1747 
Q 3116 2381 2855 2742 
Q 2594 3103 2138 3103 
Q 1681 3103 1420 2742 
Q 1159 2381 1159 1747 
Q 1159 1113 1420 752 
Q 1681 391 2138 391 
Q 2594 391 2855 752 
Q 3116 1113 3116 1747 
z
M 1159 2969 
Q 1341 3281 1617 3432 
Q 1894 3584 2278 3584 
Q 2916 3584 3314 3078 
Q 3713 2572 3713 1747 
Q 3713 922 3314 415 
Q 2916 -91 2278 -91 
Q 1894 -91 1617 61 
Q 1341 213 1159 525 
L 1159 0 
L 581 0 
L 581 4863 
L 1159 4863 
L 1159 2969 
z
" transform="scale(0.015625)"/>
       <path id="DejaVuSans-5b" d="M 3513 3500 
L 2247 1797 
L 3578 0 
L 2900 0 
L 1881 1375 
L 863 0 
L 184 0 
L 1544 1831 
L 300 3500 
L 978 3500 
L 1906 2253 
L 2834 3500 
L 3513 3500 
z
" transform="scale(0.015625)"/>
       <path id="DejaVuSans-3" transform="scale(0.015625)"/>
       <path id="DejaVuSans-44" d="M 2194 1759 
Q 1497 1759 1228 1600 
Q 959 1441 959 1056 
Q 959 750 1161 570 
Q 1363 391 1709 391 
Q 2188 391 2477 730 
Q 2766 1069 2766 1631 
L 2766 1759 
L 2194 1759 
z
M 3341 1997 
L 3341 0 
L 2766 0 
L 2766 531 
Q 2569 213 2275 61 
Q 1981 -91 1556 -91 
Q 1019 -91 701 211 
Q 384 513 384 1019 
Q 384 1609 779 1909 
Q 1175 2209 1959 2209 
L 2766 2209 
L 2766 2266 
Q 2766 2663 2505 2880 
Q 2244 3097 1772 3097 
Q 1472 3097 1187 3025 
Q 903 2953 641 2809 
L 641 3341 
Q 956 3463 1253 3523 
Q 1550 3584 1831 3584 
Q 2591 3584 2966 3190 
Q 3341 2797 3341 1997 
z
" transform="scale(0.015625)"/>
       <path id="DejaVuSans-55" d="M 2631 2963 
Q 2534 3019 2420 3045 
Q 2306 3072 2169 3072 
Q 1681 3072 1420 2755 
Q 1159 2438 1159 1844 
L 1159 0 
L 581 0 
L 581 3500 
L 1159 3500 
L 1159 2956 
Q 1341 3275 1631 3429 
Q 1922 3584 2338 3584 
Q 2397 3584 2469 3576 
Q 2541 3569 2628 3553 
L 2631 2963 
z
" transform="scale(0.015625)"/>
       <path id="DejaVuSans-48" d="M 3597 1894 
L 3597 1613 
L 953 1613 
Q 991 1019 1311 708 
Q 1631 397 2203 397 
Q 2534 397 2845 478 
Q 3156 559 3463 722 
L 3463 178 
Q 3153 47 2828 -22 
Q 2503 -91 2169 -91 
Q 1331 -91 842 396 
Q 353 884 353 1716 
Q 353 2575 817 3079 
Q 1281 3584 2069 3584 
Q 2775 3584 3186 3129 
Q 3597 2675 3597 1894 
z
M 3022 2063 
Q 3016 2534 2758 2815 
Q 2500 3097 2075 3097 
Q 1594 3097 1305 2825 
Q 1016 2553 972 2059 
L 3022 2063 
z
" transform="scale(0.015625)"/>
       <path id="DejaVuSans-12" d="M 1625 4666 
L 2156 4666 
L 531 -594 
L 0 -594 
L 1625 4666 
z
" transform="scale(0.015625)"/>
       <path id="DejaVuSans-13af" d="M 3431 3500 
L 3431 0 
L 2853 0 
L 2853 3053 
L 1275 3053 
L 1275 0 
L 697 0 
L 697 3053 
L 147 3053 
L 147 3500 
L 697 3500 
L 697 3744 
Q 697 4316 967 4589 
Q 1238 4863 1797 4863 
L 2375 4863 
L 2375 4384 
L 1825 4384 
Q 1516 4384 1395 4259 
Q 1275 4134 1275 3809 
L 1275 3500 
L 3431 3500 
z
M 2853 4856 
L 3431 4856 
L 3431 4128 
L 2853 4128 
L 2853 4856 
z
" transform="scale(0.015625)"/>
       <path id="DejaVuSans-35" d="M 2841 2188 
Q 3044 2119 3236 1894 
Q 3428 1669 3622 1275 
L 4263 0 
L 3584 0 
L 2988 1197 
Q 2756 1666 2539 1819 
Q 2322 1972 1947 1972 
L 1259 1972 
L 1259 0 
L 628 0 
L 628 4666 
L 2053 4666 
Q 2853 4666 3247 4331 
Q 3641 3997 3641 3322 
Q 3641 2881 3436 2590 
Q 3231 2300 2841 2188 
z
M 1259 4147 
L 1259 2491 
L 2053 2491 
Q 2509 2491 2742 2702 
Q 2975 2913 2975 3322 
Q 2975 3731 2742 3939 
Q 2509 4147 2053 4147 
L 1259 4147 
z
" transform="scale(0.015625)"/>
       <path id="DejaVuSans-32" d="M 2522 4238 
Q 1834 4238 1429 3725 
Q 1025 3213 1025 2328 
Q 1025 1447 1429 934 
Q 1834 422 2522 422 
Q 3209 422 3611 934 
Q 4013 1447 4013 2328 
Q 4013 3213 3611 3725 
Q 3209 4238 2522 4238 
z
M 2522 4750 
Q 3503 4750 4090 4092 
Q 4678 3434 4678 2328 
Q 4678 1225 4090 567 
Q 3503 -91 2522 -91 
Q 1538 -91 948 565 
Q 359 1222 359 2328 
Q 359 3434 948 4092 
Q 1538 4750 2522 4750 
z
" transform="scale(0.015625)"/>
       <path id="DejaVuSans-2c" d="M 628 4666 
L 1259 4666 
L 1259 0 
L 628 0 
L 628 4666 
z
" transform="scale(0.015625)"/>
      </defs>
      <use xlink:href="#DejaVuSans-25"/>
      <use xlink:href="#DejaVuSans-52" transform="translate(68.609375 0)"/>
      <use xlink:href="#DejaVuSans-58" transform="translate(129.796875 0)"/>
      <use xlink:href="#DejaVuSans-51" transform="translate(193.171875 0)"/>
      <use xlink:href="#DejaVuSans-47" transform="translate(256.546875 0)"/>
      <use xlink:href="#DejaVuSans-4c" transform="translate(320.03125 0)"/>
      <use xlink:href="#DejaVuSans-51" transform="translate(347.8125 0)"/>
      <use xlink:href="#DejaVuSans-4a" transform="translate(411.1875 0)"/>
      <use xlink:href="#DejaVuSans-10" transform="translate(474.671875 0)"/>
      <use xlink:href="#DejaVuSans-45" transform="translate(510.75 0)"/>
      <use xlink:href="#DejaVuSans-52" transform="translate(574.234375 0)"/>
      <use xlink:href="#DejaVuSans-5b" transform="translate(632.34375 0)"/>
      <use xlink:href="#DejaVuSans-3" transform="translate(691.53125 0)"/>
      <use xlink:href="#DejaVuSans-44" transform="translate(723.3125 0)"/>
      <use xlink:href="#DejaVuSans-55" transform="translate(784.59375 0)"/>
      <use xlink:href="#DejaVuSans-48" transform="translate(823.5 0)"/>
      <use xlink:href="#DejaVuSans-44" transform="translate(885.03125 0)"/>
      <use xlink:href="#DejaVuSans-3" transform="translate(946.3125 0)"/>
      <use xlink:href="#DejaVuSans-12" transform="translate(978.09375 0)"/>
      <use xlink:href="#DejaVuSans-3" transform="translate(1011.78125 0)"/>
      <use xlink:href="#DejaVuSans-13af" transform="translate(1043.5625 0)"/>
      <use xlink:href="#DejaVuSans-5b" transform="translate(1106.546875 0)"/>
      <use xlink:href="#DejaVuSans-48" transform="translate(1162.65625 0)"/>
      <use xlink:href="#DejaVuSans-47" transform="translate(1224.1875 0)"/>
      <use xlink:href="#DejaVuSans-3" transform="translate(1287.671875 0)"/>
      <use xlink:href="#DejaVuSans-35" transform="translate(1319.453125 0)"/>
      <use xlink:href="#DejaVuSans-32" transform="translate(1388.9375 0)"/>
      <use xlink:href="#DejaVuSans-2c" transform="translate(1467.65625 0)"/>
      <use xlink:href="#DejaVuSans-3" transform="translate(1497.15625 0)"/>
      <use xlink:href="#DejaVuSans-44" transform="translate(1528.9375 0)"/>
      <use xlink:href="#DejaVuSans-55" transform="translate(1590.21875 0)"/>
      <use xlink:href="#DejaVuSans-48" transform="translate(1629.125 0)"/>
      <use xlink:href="#DejaVuSans-44" transform="translate(1690.65625 0)"/>
     </g>
    </g>
   </g>
   <g id="matplotlib.axis_2">
    <g id="ytick_1">
     <g id="line2d_11">
      <path d="M 60.013281 272.557969 
L 506.413281 272.557969 
" clip-path="url(#p6340da121b)" style="fill: none; stroke: #d9dee3; stroke-width: 0.7; stroke-linecap: square"/>
     </g>
     <g id="line2d_12">
      <defs>
       <path id="m3c8fadbe10" d="M 0 0 
L -3.5 0 
" style="stroke: #000000; stroke-width: 0.8"/>
      </defs>
      <g>
       <use xlink:href="#m3c8fadbe10" x="60.013281" y="272.557969" style="stroke: #000000; stroke-width: 0.8"/>
      </g>
     </g>
     <g id="text_7">
      <!-- 0 -->
      <g transform="translate(46.650781 276.356797) scale(0.1 -0.1)">
       <use xlink:href="#DejaVuSans-13"/>
      </g>
     </g>
    </g>
    <g id="ytick_2">
     <g id="line2d_13">
      <path d="M 60.013281 225.684818 
L 506.413281 225.684818 
" clip-path="url(#p6340da121b)" style="fill: none; stroke: #d9dee3; stroke-width: 0.7; stroke-linecap: square"/>
     </g>
     <g id="line2d_14">
      <g>
       <use xlink:href="#m3c8fadbe10" x="60.013281" y="225.684818" style="stroke: #000000; stroke-width: 0.8"/>
      </g>
     </g>
     <g id="text_8">
      <!-- 2000 -->
      <g transform="translate(27.563281 229.483646) scale(0.1 -0.1)">
       <use xlink:href="#DejaVuSans-15"/>
       <use xlink:href="#DejaVuSans-13" transform="translate(63.625 0)"/>
       <use xlink:href="#DejaVuSans-13" transform="translate(127.25 0)"/>
       <use xlink:href="#DejaVuSans-13" transform="translate(190.875 0)"/>
      </g>
     </g>
    </g>
    <g id="ytick_3">
     <g id="line2d_15">
      <path d="M 60.013281 178.811668 
L 506.413281 178.811668 
" clip-path="url(#p6340da121b)" style="fill: none; stroke: #d9dee3; stroke-width: 0.7; stroke-linecap: square"/>
     </g>
     <g id="line2d_16">
      <g>
       <use xlink:href="#m3c8fadbe10" x="60.013281" y="178.811668" style="stroke: #000000; stroke-width: 0.8"/>
      </g>
     </g>
     <g id="text_9">
      <!-- 4000 -->
      <g transform="translate(27.563281 182.610496) scale(0.1 -0.1)">
       <use xlink:href="#DejaVuSans-17"/>
       <use xlink:href="#DejaVuSans-13" transform="translate(63.625 0)"/>
       <use xlink:href="#DejaVuSans-13" transform="translate(127.25 0)"/>
       <use xlink:href="#DejaVuSans-13" transform="translate(190.875 0)"/>
      </g>
     </g>
    </g>
    <g id="ytick_4">
     <g id="line2d_17">
      <path d="M 60.013281 131.938517 
L 506.413281 131.938517 
" clip-path="url(#p6340da121b)" style="fill: none; stroke: #d9dee3; stroke-width: 0.7; stroke-linecap: square"/>
     </g>
     <g id="line2d_18">
      <g>
       <use xlink:href="#m3c8fadbe10" x="60.013281" y="131.938517" style="stroke: #000000; stroke-width: 0.8"/>
      </g>
     </g>
     <g id="text_10">
      <!-- 6000 -->
      <g transform="translate(27.563281 135.737345) scale(0.1 -0.1)">
       <defs>
        <path id="DejaVuSans-19" d="M 2113 2584 
Q 1688 2584 1439 2293 
Q 1191 2003 1191 1497 
Q 1191 994 1439 701 
Q 1688 409 2113 409 
Q 2538 409 2786 701 
Q 3034 994 3034 1497 
Q 3034 2003 2786 2293 
Q 2538 2584 2113 2584 
z
M 3366 4563 
L 3366 3988 
Q 3128 4100 2886 4159 
Q 2644 4219 2406 4219 
Q 1781 4219 1451 3797 
Q 1122 3375 1075 2522 
Q 1259 2794 1537 2939 
Q 1816 3084 2150 3084 
Q 2853 3084 3261 2657 
Q 3669 2231 3669 1497 
Q 3669 778 3244 343 
Q 2819 -91 2113 -91 
Q 1303 -91 875 529 
Q 447 1150 447 2328 
Q 447 3434 972 4092 
Q 1497 4750 2381 4750 
Q 2619 4750 2861 4703 
Q 3103 4656 3366 4563 
z
" transform="scale(0.015625)"/>
       </defs>
       <use xlink:href="#DejaVuSans-19"/>
       <use xlink:href="#DejaVuSans-13" transform="translate(63.625 0)"/>
       <use xlink:href="#DejaVuSans-13" transform="translate(127.25 0)"/>
       <use xlink:href="#DejaVuSans-13" transform="translate(190.875 0)"/>
      </g>
     </g>
    </g>
    <g id="ytick_5">
     <g id="line2d_19">
      <path d="M 60.013281 85.065367 
L 506.413281 85.065367 
" clip-path="url(#p6340da121b)" style="fill: none; stroke: #d9dee3; stroke-width: 0.7; stroke-linecap: square"/>
     </g>
     <g id="line2d_20">
      <g>
       <use xlink:href="#m3c8fadbe10" x="60.013281" y="85.065367" style="stroke: #000000; stroke-width: 0.8"/>
      </g>
     </g>
     <g id="text_11">
      <!-- 8000 -->
      <g transform="translate(27.563281 88.864195) scale(0.1 -0.1)">
       <defs>
        <path id="DejaVuSans-1b" d="M 2034 2216 
Q 1584 2216 1326 1975 
Q 1069 1734 1069 1313 
Q 1069 891 1326 650 
Q 1584 409 2034 409 
Q 2484 409 2743 651 
Q 3003 894 3003 1313 
Q 3003 1734 2745 1975 
Q 2488 2216 2034 2216 
z
M 1403 2484 
Q 997 2584 770 2862 
Q 544 3141 544 3541 
Q 544 4100 942 4425 
Q 1341 4750 2034 4750 
Q 2731 4750 3128 4425 
Q 3525 4100 3525 3541 
Q 3525 3141 3298 2862 
Q 3072 2584 2669 2484 
Q 3125 2378 3379 2068 
Q 3634 1759 3634 1313 
Q 3634 634 3220 271 
Q 2806 -91 2034 -91 
Q 1263 -91 848 271 
Q 434 634 434 1313 
Q 434 1759 690 2068 
Q 947 2378 1403 2484 
z
M 1172 3481 
Q 1172 3119 1398 2916 
Q 1625 2713 2034 2713 
Q 2441 2713 2670 2916 
Q 2900 3119 2900 3481 
Q 2900 3844 2670 4047 
Q 2441 4250 2034 4250 
Q 1625 4250 1398 4047 
Q 1172 3844 1172 3481 
z
" transform="scale(0.015625)"/>
       </defs>
       <use xlink:href="#DejaVuSans-1b"/>
       <use xlink:href="#DejaVuSans-13" transform="translate(63.625 0)"/>
       <use xlink:href="#DejaVuSans-13" transform="translate(127.25 0)"/>
       <use xlink:href="#DejaVuSans-13" transform="translate(190.875 0)"/>
      </g>
     </g>
    </g>
    <g id="ytick_6">
     <g id="line2d_21">
      <path d="M 60.013281 38.192216 
L 506.413281 38.192216 
" clip-path="url(#p6340da121b)" style="fill: none; stroke: #d9dee3; stroke-width: 0.7; stroke-linecap: square"/>
     </g>
     <g id="line2d_22">
      <g>
       <use xlink:href="#m3c8fadbe10" x="60.013281" y="38.192216" style="stroke: #000000; stroke-width: 0.8"/>
      </g>
     </g>
     <g id="text_12">
      <!-- 10000 -->
      <g transform="translate(21.200781 41.991044) scale(0.1 -0.1)">
       <use xlink:href="#DejaVuSans-14"/>
       <use xlink:href="#DejaVuSans-13" transform="translate(63.625 0)"/>
       <use xlink:href="#DejaVuSans-13" transform="translate(127.25 0)"/>
       <use xlink:href="#DejaVuSans-13" transform="translate(190.875 0)"/>
       <use xlink:href="#DejaVuSans-13" transform="translate(254.5 0)"/>
      </g>
     </g>
    </g>
    <g id="text_13">
     <!-- Pseudo-boxes -->
     <g transform="translate(14.798438 182.292187) rotate(-90) scale(0.1 -0.1)">
      <defs>
       <path id="DejaVuSans-33" d="M 1259 4147 
L 1259 2394 
L 2053 2394 
Q 2494 2394 2734 2622 
Q 2975 2850 2975 3272 
Q 2975 3691 2734 3919 
Q 2494 4147 2053 4147 
L 1259 4147 
z
M 628 4666 
L 2053 4666 
Q 2838 4666 3239 4311 
Q 3641 3956 3641 3272 
Q 3641 2581 3239 2228 
Q 2838 1875 2053 1875 
L 1259 1875 
L 1259 0 
L 628 0 
L 628 4666 
z
" transform="scale(0.015625)"/>
       <path id="DejaVuSans-56" d="M 2834 3397 
L 2834 2853 
Q 2591 2978 2328 3040 
Q 2066 3103 1784 3103 
Q 1356 3103 1142 2972 
Q 928 2841 928 2578 
Q 928 2378 1081 2264 
Q 1234 2150 1697 2047 
L 1894 2003 
Q 2506 1872 2764 1633 
Q 3022 1394 3022 966 
Q 3022 478 2636 193 
Q 2250 -91 1575 -91 
Q 1294 -91 989 -36 
Q 684 19 347 128 
L 347 722 
Q 666 556 975 473 
Q 1284 391 1588 391 
Q 1994 391 2212 530 
Q 2431 669 2431 922 
Q 2431 1156 2273 1281 
Q 2116 1406 1581 1522 
L 1381 1569 
Q 847 1681 609 1914 
Q 372 2147 372 2553 
Q 372 3047 722 3315 
Q 1072 3584 1716 3584 
Q 2034 3584 2315 3537 
Q 2597 3491 2834 3397 
z
" transform="scale(0.015625)"/>
      </defs>
      <use xlink:href="#DejaVuSans-33"/>
      <use xlink:href="#DejaVuSans-56" transform="translate(58.546875 0)"/>
      <use xlink:href="#DejaVuSans-48" transform="translate(110.640625 0)"/>
      <use xlink:href="#DejaVuSans-58" transform="translate(172.171875 0)"/>
      <use xlink:href="#DejaVuSans-47" transform="translate(235.546875 0)"/>
      <use xlink:href="#DejaVuSans-52" transform="translate(299.03125 0)"/>
      <use xlink:href="#DejaVuSans-10" transform="translate(362.078125 0)"/>
      <use xlink:href="#DejaVuSans-45" transform="translate(398.15625 0)"/>
      <use xlink:href="#DejaVuSans-52" transform="translate(461.640625 0)"/>
      <use xlink:href="#DejaVuSans-5b" transform="translate(519.75 0)"/>
      <use xlink:href="#DejaVuSans-48" transform="translate(575.859375 0)"/>
      <use xlink:href="#DejaVuSans-56" transform="translate(637.390625 0)"/>
     </g>
    </g>
   </g>
   <g id="patch_3">
    <path d="M 80.30419 272.557969 
L 87.825898 272.557969 
L 87.825898 51.574501 
L 80.30419 51.574501 
z
" clip-path="url(#p6340da121b)" style="fill: #1f77b4; opacity: 0.45"/>
   </g>
   <g id="patch_4">
    <path d="M 87.825898 272.557969 
L 95.347606 272.557969 
L 95.347606 264.870772 
L 87.825898 264.870772 
z
" clip-path="url(#p6340da121b)" style="fill: #1f77b4; opacity: 0.45"/>
   </g>
   <g id="patch_5">
    <path d="M 95.347606 272.557969 
L 102.869314 272.557969 
L 102.869314 270.63617 
L 95.347606 270.63617 
z
" clip-path="url(#p6340da121b)" style="fill: #1f77b4; opacity: 0.45"/>
   </g>
   <g id="patch_6">
    <path d="M 102.869314 272.557969 
L 110.391022 272.557969 
L 110.391022 272.182984 
L 102.869314 272.182984 
z
" clip-path="url(#p6340da121b)" style="fill: #1f77b4; opacity: 0.45"/>
   </g>
   <g id="patch_7">
    <path d="M 110.391022 272.557969 
L 117.91273 272.557969 
L 117.91273 272.393913 
L 110.391022 272.393913 
z
" clip-path="url(#p6340da121b)" style="fill: #1f77b4; opacity: 0.45"/>
   </g>
   <g id="patch_8">
    <path d="M 117.91273 272.557969 
L 125.434438 272.557969 
L 125.434438 272.370476 
L 117.91273 272.370476 
z
" clip-path="url(#p6340da121b)" style="fill: #1f77b4; opacity: 0.45"/>
   </g>
   <g id="patch_9">
    <path d="M 125.434438 272.557969 
L 132.956146 272.557969 
L 132.956146 272.440786 
L 125.434438 272.440786 
z
" clip-path="url(#p6340da121b)" style="fill: #1f77b4; opacity: 0.45"/>
   </g>
   <g id="patch_10">
    <path d="M 132.956146 272.557969 
L 140.477854 272.557969 
L 140.477854 272.511096 
L 132.956146 272.511096 
z
" clip-path="url(#p6340da121b)" style="fill: #1f77b4; opacity: 0.45"/>
   </g>
   <g id="patch_11">
    <path d="M 140.477854 272.557969 
L 147.999561 272.557969 
L 147.999561 272.511096 
L 140.477854 272.511096 
z
" clip-path="url(#p6340da121b)" style="fill: #1f77b4; opacity: 0.45"/>
   </g>
   <g id="patch_12">
    <path d="M 147.999561 272.557969 
L 155.521269 272.557969 
L 155.521269 272.557969 
L 147.999561 272.557969 
z
" clip-path="url(#p6340da121b)" style="fill: #1f77b4; opacity: 0.45"/>
   </g>
   <g id="patch_13">
    <path d="M 155.521269 272.557969 
L 163.042977 272.557969 
L 163.042977 272.511096 
L 155.521269 272.511096 
z
" clip-path="url(#p6340da121b)" style="fill: #1f77b4; opacity: 0.45"/>
   </g>
   <g id="patch_14">
    <path d="M 163.042977 272.557969 
L 170.564685 272.557969 
L 170.564685 272.534532 
L 163.042977 272.534532 
z
" clip-path="url(#p6340da121b)" style="fill: #1f77b4; opacity: 0.45"/>
   </g>
   <g id="patch_15">
    <path d="M 170.564685 272.557969 
L 178.086393 272.557969 
L 178.086393 272.557969 
L 170.564685 272.557969 
z
" clip-path="url(#p6340da121b)" style="fill: #1f77b4; opacity: 0.45"/>
   </g>
   <g id="patch_16">
    <path d="M 178.086393 272.557969 
L 185.608101 272.557969 
L 185.608101 272.557969 
L 178.086393 272.557969 
z
" clip-path="url(#p6340da121b)" style="fill: #1f77b4; opacity: 0.45"/>
   </g>
   <g id="patch_17">
    <path d="M 185.608101 272.557969 
L 193.129809 272.557969 
L 193.129809 272.557969 
L 185.608101 272.557969 
z
" clip-path="url(#p6340da121b)" style="fill: #1f77b4; opacity: 0.45"/>
   </g>
   <g id="patch_18">
    <path d="M 193.129809 272.557969 
L 200.651517 272.557969 
L 200.651517 272.557969 
L 193.129809 272.557969 
z
" clip-path="url(#p6340da121b)" style="fill: #1f77b4; opacity: 0.45"/>
   </g>
   <g id="patch_19">
    <path d="M 200.651517 272.557969 
L 208.173225 272.557969 
L 208.173225 272.557969 
L 200.651517 272.557969 
z
" clip-path="url(#p6340da121b)" style="fill: #1f77b4; opacity: 0.45"/>
   </g>
   <g id="patch_20">
    <path d="M 208.173225 272.557969 
L 215.694933 272.557969 
L 215.694933 272.557969 
L 208.173225 272.557969 
z
" clip-path="url(#p6340da121b)" style="fill: #1f77b4; opacity: 0.45"/>
   </g>
   <g id="patch_21">
    <path d="M 215.694933 272.557969 
L 223.21664 272.557969 
L 223.21664 272.557969 
L 215.694933 272.557969 
z
" clip-path="url(#p6340da121b)" style="fill: #1f77b4; opacity: 0.45"/>
   </g>
   <g id="patch_22">
    <path d="M 223.21664 272.557969 
L 230.738348 272.557969 
L 230.738348 272.557969 
L 223.21664 272.557969 
z
" clip-path="url(#p6340da121b)" style="fill: #1f77b4; opacity: 0.45"/>
   </g>
   <g id="patch_23">
    <path d="M 230.738348 272.557969 
L 238.260056 272.557969 
L 238.260056 272.557969 
L 230.738348 272.557969 
z
" clip-path="url(#p6340da121b)" style="fill: #1f77b4; opacity: 0.45"/>
   </g>
   <g id="patch_24">
    <path d="M 238.260056 272.557969 
L 245.781764 272.557969 
L 245.781764 272.557969 
L 238.260056 272.557969 
z
" clip-path="url(#p6340da121b)" style="fill: #1f77b4; opacity: 0.45"/>
   </g>
   <g id="patch_25">
    <path d="M 245.781764 272.557969 
L 253.303472 272.557969 
L 253.303472 272.557969 
L 245.781764 272.557969 
z
" clip-path="url(#p6340da121b)" style="fill: #1f77b4; opacity: 0.45"/>
   </g>
   <g id="patch_26">
    <path d="M 253.303472 272.557969 
L 260.82518 272.557969 
L 260.82518 272.557969 
L 253.303472 272.557969 
z
" clip-path="url(#p6340da121b)" style="fill: #1f77b4; opacity: 0.45"/>
   </g>
   <g id="patch_27">
    <path d="M 260.82518 272.557969 
L 268.346888 272.557969 
L 268.346888 272.557969 
L 260.82518 272.557969 
z
" clip-path="url(#p6340da121b)" style="fill: #1f77b4; opacity: 0.45"/>
   </g>
   <g id="patch_28">
    <path d="M 268.346888 272.557969 
L 275.868596 272.557969 
L 275.868596 272.557969 
L 268.346888 272.557969 
z
" clip-path="url(#p6340da121b)" style="fill: #1f77b4; opacity: 0.45"/>
   </g>
   <g id="patch_29">
    <path d="M 275.868596 272.557969 
L 283.390304 272.557969 
L 283.390304 272.557969 
L 275.868596 272.557969 
z
" clip-path="url(#p6340da121b)" style="fill: #1f77b4; opacity: 0.45"/>
   </g>
   <g id="patch_30">
    <path d="M 283.390304 272.557969 
L 290.912012 272.557969 
L 290.912012 272.557969 
L 283.390304 272.557969 
z
" clip-path="url(#p6340da121b)" style="fill: #1f77b4; opacity: 0.45"/>
   </g>
   <g id="patch_31">
    <path d="M 290.912012 272.557969 
L 298.43372 272.557969 
L 298.43372 272.557969 
L 290.912012 272.557969 
z
" clip-path="url(#p6340da121b)" style="fill: #1f77b4; opacity: 0.45"/>
   </g>
   <g id="patch_32">
    <path d="M 298.43372 272.557969 
L 305.955427 272.557969 
L 305.955427 272.534532 
L 298.43372 272.534532 
z
" clip-path="url(#p6340da121b)" style="fill: #1f77b4; opacity: 0.45"/>
   </g>
   <g id="patch_33">
    <path d="M 80.31139 272.557969 
L 93.202352 272.557969 
L 93.202352 34.957969 
L 80.31139 34.957969 
z
" clip-path="url(#p6340da121b)" style="fill: #ff7f0e; opacity: 0.45"/>
   </g>
   <g id="patch_34">
    <path d="M 93.202352 272.557969 
L 106.093315 272.557969 
L 106.093315 267.21443 
L 93.202352 267.21443 
z
" clip-path="url(#p6340da121b)" style="fill: #ff7f0e; opacity: 0.45"/>
   </g>
   <g id="patch_35">
    <path d="M 106.093315 272.557969 
L 118.984277 272.557969 
L 118.984277 271.807998 
L 106.093315 271.807998 
z
" clip-path="url(#p6340da121b)" style="fill: #ff7f0e; opacity: 0.45"/>
   </g>
   <g id="patch_36">
    <path d="M 118.984277 272.557969 
L 131.875239 272.557969 
L 131.875239 272.182984 
L 118.984277 272.182984 
z
" clip-path="url(#p6340da121b)" style="fill: #ff7f0e; opacity: 0.45"/>
   </g>
   <g id="patch_37">
    <path d="M 131.875239 272.557969 
L 144.766202 272.557969 
L 144.766202 272.464222 
L 131.875239 272.464222 
z
" clip-path="url(#p6340da121b)" style="fill: #ff7f0e; opacity: 0.45"/>
   </g>
   <g id="patch_38">
    <path d="M 144.766202 272.557969 
L 157.657164 272.557969 
L 157.657164 272.464222 
L 144.766202 272.464222 
z
" clip-path="url(#p6340da121b)" style="fill: #ff7f0e; opacity: 0.45"/>
   </g>
   <g id="patch_39">
    <path d="M 157.657164 272.557969 
L 170.548127 272.557969 
L 170.548127 272.370476 
L 157.657164 272.370476 
z
" clip-path="url(#p6340da121b)" style="fill: #ff7f0e; opacity: 0.45"/>
   </g>
   <g id="patch_40">
    <path d="M 170.548127 272.557969 
L 183.439089 272.557969 
L 183.439089 272.487659 
L 170.548127 272.487659 
z
" clip-path="url(#p6340da121b)" style="fill: #ff7f0e; opacity: 0.45"/>
   </g>
   <g id="patch_41">
    <path d="M 183.439089 272.557969 
L 196.330052 272.557969 
L 196.330052 272.534532 
L 183.439089 272.534532 
z
" clip-path="url(#p6340da121b)" style="fill: #ff7f0e; opacity: 0.45"/>
   </g>
   <g id="patch_42">
    <path d="M 196.330052 272.557969 
L 209.221014 272.557969 
L 209.221014 272.557969 
L 196.330052 272.557969 
z
" clip-path="url(#p6340da121b)" style="fill: #ff7f0e; opacity: 0.45"/>
   </g>
   <g id="patch_43">
    <path d="M 209.221014 272.557969 
L 222.111977 272.557969 
L 222.111977 272.557969 
L 209.221014 272.557969 
z
" clip-path="url(#p6340da121b)" style="fill: #ff7f0e; opacity: 0.45"/>
   </g>
   <g id="patch_44">
    <path d="M 222.111977 272.557969 
L 235.002939 272.557969 
L 235.002939 272.557969 
L 222.111977 272.557969 
z
" clip-path="url(#p6340da121b)" style="fill: #ff7f0e; opacity: 0.45"/>
   </g>
   <g id="patch_45">
    <path d="M 235.002939 272.557969 
L 247.893902 272.557969 
L 247.893902 272.557969 
L 235.002939 272.557969 
z
" clip-path="url(#p6340da121b)" style="fill: #ff7f0e; opacity: 0.45"/>
   </g>
   <g id="patch_46">
    <path d="M 247.893902 272.557969 
L 260.784864 272.557969 
L 260.784864 272.557969 
L 247.893902 272.557969 
z
" clip-path="url(#p6340da121b)" style="fill: #ff7f0e; opacity: 0.45"/>
   </g>
   <g id="patch_47">
    <path d="M 260.784864 272.557969 
L 273.675826 272.557969 
L 273.675826 272.557969 
L 260.784864 272.557969 
z
" clip-path="url(#p6340da121b)" style="fill: #ff7f0e; opacity: 0.45"/>
   </g>
   <g id="patch_48">
    <path d="M 273.675826 272.557969 
L 286.566789 272.557969 
L 286.566789 272.557969 
L 273.675826 272.557969 
z
" clip-path="url(#p6340da121b)" style="fill: #ff7f0e; opacity: 0.45"/>
   </g>
   <g id="patch_49">
    <path d="M 286.566789 272.557969 
L 299.457751 272.557969 
L 299.457751 272.557969 
L 286.566789 272.557969 
z
" clip-path="url(#p6340da121b)" style="fill: #ff7f0e; opacity: 0.45"/>
   </g>
   <g id="patch_50">
    <path d="M 299.457751 272.557969 
L 312.348714 272.557969 
L 312.348714 272.557969 
L 299.457751 272.557969 
z
" clip-path="url(#p6340da121b)" style="fill: #ff7f0e; opacity: 0.45"/>
   </g>
   <g id="patch_51">
    <path d="M 312.348714 272.557969 
L 325.239676 272.557969 
L 325.239676 272.557969 
L 312.348714 272.557969 
z
" clip-path="url(#p6340da121b)" style="fill: #ff7f0e; opacity: 0.45"/>
   </g>
   <g id="patch_52">
    <path d="M 325.239676 272.557969 
L 338.130639 272.557969 
L 338.130639 272.557969 
L 325.239676 272.557969 
z
" clip-path="url(#p6340da121b)" style="fill: #ff7f0e; opacity: 0.45"/>
   </g>
   <g id="patch_53">
    <path d="M 338.130639 272.557969 
L 351.021601 272.557969 
L 351.021601 272.557969 
L 338.130639 272.557969 
z
" clip-path="url(#p6340da121b)" style="fill: #ff7f0e; opacity: 0.45"/>
   </g>
   <g id="patch_54">
    <path d="M 351.021601 272.557969 
L 363.912564 272.557969 
L 363.912564 272.557969 
L 351.021601 272.557969 
z
" clip-path="url(#p6340da121b)" style="fill: #ff7f0e; opacity: 0.45"/>
   </g>
   <g id="patch_55">
    <path d="M 363.912564 272.557969 
L 376.803526 272.557969 
L 376.803526 272.557969 
L 363.912564 272.557969 
z
" clip-path="url(#p6340da121b)" style="fill: #ff7f0e; opacity: 0.45"/>
   </g>
   <g id="patch_56">
    <path d="M 376.803526 272.557969 
L 389.694489 272.557969 
L 389.694489 272.557969 
L 376.803526 272.557969 
z
" clip-path="url(#p6340da121b)" style="fill: #ff7f0e; opacity: 0.45"/>
   </g>
   <g id="patch_57">
    <path d="M 389.694489 272.557969 
L 402.585451 272.557969 
L 402.585451 272.557969 
L 389.694489 272.557969 
z
" clip-path="url(#p6340da121b)" style="fill: #ff7f0e; opacity: 0.45"/>
   </g>
   <g id="patch_58">
    <path d="M 402.585451 272.557969 
L 415.476413 272.557969 
L 415.476413 272.557969 
L 402.585451 272.557969 
z
" clip-path="url(#p6340da121b)" style="fill: #ff7f0e; opacity: 0.45"/>
   </g>
   <g id="patch_59">
    <path d="M 415.476413 272.557969 
L 428.367376 272.557969 
L 428.367376 272.557969 
L 415.476413 272.557969 
z
" clip-path="url(#p6340da121b)" style="fill: #ff7f0e; opacity: 0.45"/>
   </g>
   <g id="patch_60">
    <path d="M 428.367376 272.557969 
L 441.258338 272.557969 
L 441.258338 272.557969 
L 428.367376 272.557969 
z
" clip-path="url(#p6340da121b)" style="fill: #ff7f0e; opacity: 0.45"/>
   </g>
   <g id="patch_61">
    <path d="M 441.258338 272.557969 
L 454.149301 272.557969 
L 454.149301 272.557969 
L 441.258338 272.557969 
z
" clip-path="url(#p6340da121b)" style="fill: #ff7f0e; opacity: 0.45"/>
   </g>
   <g id="patch_62">
    <path d="M 454.149301 272.557969 
L 467.040263 272.557969 
L 467.040263 272.534532 
L 454.149301 272.534532 
z
" clip-path="url(#p6340da121b)" style="fill: #ff7f0e; opacity: 0.45"/>
   </g>
   <g id="patch_63">
    <path d="M 80.30739 272.557969 
L 93.834556 272.557969 
L 93.834556 40.371818 
L 80.30739 40.371818 
z
" clip-path="url(#p6340da121b)" style="fill: #2ca02c; opacity: 0.45"/>
   </g>
   <g id="patch_64">
    <path d="M 93.834556 272.557969 
L 107.361722 272.557969 
L 107.361722 266.487896 
L 93.834556 266.487896 
z
" clip-path="url(#p6340da121b)" style="fill: #2ca02c; opacity: 0.45"/>
   </g>
   <g id="patch_65">
    <path d="M 107.361722 272.557969 
L 120.888888 272.557969 
L 120.888888 270.659606 
L 107.361722 270.659606 
z
" clip-path="url(#p6340da121b)" style="fill: #2ca02c; opacity: 0.45"/>
   </g>
   <g id="patch_66">
    <path d="M 120.888888 272.557969 
L 134.416054 272.557969 
L 134.416054 271.854871 
L 120.888888 271.854871 
z
" clip-path="url(#p6340da121b)" style="fill: #2ca02c; opacity: 0.45"/>
   </g>
   <g id="patch_67">
    <path d="M 134.416054 272.557969 
L 147.94322 272.557969 
L 147.94322 272.20642 
L 134.416054 272.20642 
z
" clip-path="url(#p6340da121b)" style="fill: #2ca02c; opacity: 0.45"/>
   </g>
   <g id="patch_68">
    <path d="M 147.94322 272.557969 
L 161.470386 272.557969 
L 161.470386 272.417349 
L 147.94322 272.417349 
z
" clip-path="url(#p6340da121b)" style="fill: #2ca02c; opacity: 0.45"/>
   </g>
   <g id="patch_69">
    <path d="M 161.470386 272.557969 
L 174.997553 272.557969 
L 174.997553 272.464222 
L 161.470386 272.464222 
z
" clip-path="url(#p6340da121b)" style="fill: #2ca02c; opacity: 0.45"/>
   </g>
   <g id="patch_70">
    <path d="M 174.997553 272.557969 
L 188.524719 272.557969 
L 188.524719 272.440786 
L 174.997553 272.440786 
z
" clip-path="url(#p6340da121b)" style="fill: #2ca02c; opacity: 0.45"/>
   </g>
   <g id="patch_71">
    <path d="M 188.524719 272.557969 
L 202.051885 272.557969 
L 202.051885 272.557969 
L 188.524719 272.557969 
z
" clip-path="url(#p6340da121b)" style="fill: #2ca02c; opacity: 0.45"/>
   </g>
   <g id="patch_72">
    <path d="M 202.051885 272.557969 
L 215.579051 272.557969 
L 215.579051 272.557969 
L 202.051885 272.557969 
z
" clip-path="url(#p6340da121b)" style="fill: #2ca02c; opacity: 0.45"/>
   </g>
   <g id="patch_73">
    <path d="M 215.579051 272.557969 
L 229.106217 272.557969 
L 229.106217 272.557969 
L 215.579051 272.557969 
z
" clip-path="url(#p6340da121b)" style="fill: #2ca02c; opacity: 0.45"/>
   </g>
   <g id="patch_74">
    <path d="M 229.106217 272.557969 
L 242.633383 272.557969 
L 242.633383 272.557969 
L 229.106217 272.557969 
z
" clip-path="url(#p6340da121b)" style="fill: #2ca02c; opacity: 0.45"/>
   </g>
   <g id="patch_75">
    <path d="M 242.633383 272.557969 
L 256.160549 272.557969 
L 256.160549 272.557969 
L 242.633383 272.557969 
z
" clip-path="url(#p6340da121b)" style="fill: #2ca02c; opacity: 0.45"/>
   </g>
   <g id="patch_76">
    <path d="M 256.160549 272.557969 
L 269.687715 272.557969 
L 269.687715 272.534532 
L 256.160549 272.534532 
z
" clip-path="url(#p6340da121b)" style="fill: #2ca02c; opacity: 0.45"/>
   </g>
   <g id="patch_77">
    <path d="M 269.687715 272.557969 
L 283.214881 272.557969 
L 283.214881 272.557969 
L 269.687715 272.557969 
z
" clip-path="url(#p6340da121b)" style="fill: #2ca02c; opacity: 0.45"/>
   </g>
   <g id="patch_78">
    <path d="M 283.214881 272.557969 
L 296.742047 272.557969 
L 296.742047 272.557969 
L 283.214881 272.557969 
z
" clip-path="url(#p6340da121b)" style="fill: #2ca02c; opacity: 0.45"/>
   </g>
   <g id="patch_79">
    <path d="M 296.742047 272.557969 
L 310.269213 272.557969 
L 310.269213 272.557969 
L 296.742047 272.557969 
z
" clip-path="url(#p6340da121b)" style="fill: #2ca02c; opacity: 0.45"/>
   </g>
   <g id="patch_80">
    <path d="M 310.269213 272.557969 
L 323.796379 272.557969 
L 323.796379 272.557969 
L 310.269213 272.557969 
z
" clip-path="url(#p6340da121b)" style="fill: #2ca02c; opacity: 0.45"/>
   </g>
   <g id="patch_81">
    <path d="M 323.796379 272.557969 
L 337.323545 272.557969 
L 337.323545 272.557969 
L 323.796379 272.557969 
z
" clip-path="url(#p6340da121b)" style="fill: #2ca02c; opacity: 0.45"/>
   </g>
   <g id="patch_82">
    <path d="M 337.323545 272.557969 
L 350.850711 272.557969 
L 350.850711 272.557969 
L 337.323545 272.557969 
z
" clip-path="url(#p6340da121b)" style="fill: #2ca02c; opacity: 0.45"/>
   </g>
   <g id="patch_83">
    <path d="M 350.850711 272.557969 
L 364.377878 272.557969 
L 364.377878 272.557969 
L 350.850711 272.557969 
z
" clip-path="url(#p6340da121b)" style="fill: #2ca02c; opacity: 0.45"/>
   </g>
   <g id="patch_84">
    <path d="M 364.377878 272.557969 
L 377.905044 272.557969 
L 377.905044 272.557969 
L 364.377878 272.557969 
z
" clip-path="url(#p6340da121b)" style="fill: #2ca02c; opacity: 0.45"/>
   </g>
   <g id="patch_85">
    <path d="M 377.905044 272.557969 
L 391.43221 272.557969 
L 391.43221 272.557969 
L 377.905044 272.557969 
z
" clip-path="url(#p6340da121b)" style="fill: #2ca02c; opacity: 0.45"/>
   </g>
   <g id="patch_86">
    <path d="M 391.43221 272.557969 
L 404.959376 272.557969 
L 404.959376 272.557969 
L 391.43221 272.557969 
z
" clip-path="url(#p6340da121b)" style="fill: #2ca02c; opacity: 0.45"/>
   </g>
   <g id="patch_87">
    <path d="M 404.959376 272.557969 
L 418.486542 272.557969 
L 418.486542 272.557969 
L 404.959376 272.557969 
z
" clip-path="url(#p6340da121b)" style="fill: #2ca02c; opacity: 0.45"/>
   </g>
   <g id="patch_88">
    <path d="M 418.486542 272.557969 
L 432.013708 272.557969 
L 432.013708 272.557969 
L 418.486542 272.557969 
z
" clip-path="url(#p6340da121b)" style="fill: #2ca02c; opacity: 0.45"/>
   </g>
   <g id="patch_89">
    <path d="M 432.013708 272.557969 
L 445.540874 272.557969 
L 445.540874 272.557969 
L 432.013708 272.557969 
z
" clip-path="url(#p6340da121b)" style="fill: #2ca02c; opacity: 0.45"/>
   </g>
   <g id="patch_90">
    <path d="M 445.540874 272.557969 
L 459.06804 272.557969 
L 459.06804 272.557969 
L 445.540874 272.557969 
z
" clip-path="url(#p6340da121b)" style="fill: #2ca02c; opacity: 0.45"/>
   </g>
   <g id="patch_91">
    <path d="M 459.06804 272.557969 
L 472.595206 272.557969 
L 472.595206 272.534532 
L 459.06804 272.534532 
z
" clip-path="url(#p6340da121b)" style="fill: #2ca02c; opacity: 0.45"/>
   </g>
   <g id="patch_92">
    <path d="M 472.595206 272.557969 
L 486.122372 272.557969 
L 486.122372 272.534532 
L 472.595206 272.534532 
z
" clip-path="url(#p6340da121b)" style="fill: #2ca02c; opacity: 0.45"/>
   </g>
   <g id="patch_93">
    <path d="M 60.013281 272.557969 
L 60.013281 23.077969 
" style="fill: none; stroke: #444444; stroke-width: 0.8; stroke-linejoin: miter; stroke-linecap: square"/>
   </g>
   <g id="patch_94">
    <path d="M 506.413281 272.557969 
L 506.413281 23.077969 
" style="fill: none; stroke: #444444; stroke-width: 0.8; stroke-linejoin: miter; stroke-linecap: square"/>
   </g>
   <g id="patch_95">
    <path d="M 60.013281 272.557969 
L 506.413281 272.557969 
" style="fill: none; stroke: #444444; stroke-width: 0.8; stroke-linejoin: miter; stroke-linecap: square"/>
   </g>
   <g id="patch_96">
    <path d="M 60.013281 23.077969 
L 506.413281 23.077969 
" style="fill: none; stroke: #444444; stroke-width: 0.8; stroke-linejoin: miter; stroke-linecap: square"/>
   </g>
   <g id="text_14">
    <!-- Provisional pseudo-box area distribution -->
    <g transform="translate(152.486094 17.077969) scale(0.13 -0.13)">
     <defs>
      <path id="DejaVuSans-59" d="M 191 3500 
L 800 3500 
L 1894 563 
L 2988 3500 
L 3597 3500 
L 2284 0 
L 1503 0 
L 191 3500 
z
" transform="scale(0.015625)"/>
      <path id="DejaVuSans-4f" d="M 603 4863 
L 1178 4863 
L 1178 0 
L 603 0 
L 603 4863 
z
" transform="scale(0.015625)"/>
      <path id="DejaVuSans-53" d="M 1159 525 
L 1159 -1331 
L 581 -1331 
L 581 3500 
L 1159 3500 
L 1159 2969 
Q 1341 3281 1617 3432 
Q 1894 3584 2278 3584 
Q 2916 3584 3314 3078 
Q 3713 2572 3713 1747 
Q 3713 922 3314 415 
Q 2916 -91 2278 -91 
Q 1894 -91 1617 61 
Q 1341 213 1159 525 
z
M 3116 1747 
Q 3116 2381 2855 2742 
Q 2594 3103 2138 3103 
Q 1681 3103 1420 2742 
Q 1159 2381 1159 1747 
Q 1159 1113 1420 752 
Q 1681 391 2138 391 
Q 2594 391 2855 752 
Q 3116 1113 3116 1747 
z
" transform="scale(0.015625)"/>
      <path id="DejaVuSans-57" d="M 1172 4494 
L 1172 3500 
L 2356 3500 
L 2356 3053 
L 1172 3053 
L 1172 1153 
Q 1172 725 1289 603 
Q 1406 481 1766 481 
L 2356 481 
L 2356 0 
L 1766 0 
Q 1100 0 847 248 
Q 594 497 594 1153 
L 594 3053 
L 172 3053 
L 172 3500 
L 594 3500 
L 594 4494 
L 1172 4494 
z
" transform="scale(0.015625)"/>
     </defs>
     <use xlink:href="#DejaVuSans-33"/>
     <use xlink:href="#DejaVuSans-55" transform="translate(58.546875 0)"/>
     <use xlink:href="#DejaVuSans-52" transform="translate(97.453125 0)"/>
     <use xlink:href="#DejaVuSans-59" transform="translate(158.640625 0)"/>
     <use xlink:href="#DejaVuSans-4c" transform="translate(217.828125 0)"/>
     <use xlink:href="#DejaVuSans-56" transform="translate(245.609375 0)"/>
     <use xlink:href="#DejaVuSans-4c" transform="translate(297.703125 0)"/>
     <use xlink:href="#DejaVuSans-52" transform="translate(325.484375 0)"/>
     <use xlink:href="#DejaVuSans-51" transform="translate(386.671875 0)"/>
     <use xlink:href="#DejaVuSans-44" transform="translate(450.046875 0)"/>
     <use xlink:href="#DejaVuSans-4f" transform="translate(511.328125 0)"/>
     <use xlink:href="#DejaVuSans-3" transform="translate(539.109375 0)"/>
     <use xlink:href="#DejaVuSans-53" transform="translate(570.890625 0)"/>
     <use xlink:href="#DejaVuSans-56" transform="translate(634.375 0)"/>
     <use xlink:href="#DejaVuSans-48" transform="translate(686.46875 0)"/>
     <use xlink:href="#DejaVuSans-58" transform="translate(748 0)"/>
     <use xlink:href="#DejaVuSans-47" transform="translate(811.375 0)"/>
     <use xlink:href="#DejaVuSans-52" transform="translate(874.859375 0)"/>
     <use xlink:href="#DejaVuSans-10" transform="translate(937.90625 0)"/>
     <use xlink:href="#DejaVuSans-45" transform="translate(973.984375 0)"/>
     <use xlink:href="#DejaVuSans-52" transform="translate(1037.46875 0)"/>
     <use xlink:href="#DejaVuSans-5b" transform="translate(1095.578125 0)"/>
     <use xlink:href="#DejaVuSans-3" transform="translate(1154.765625 0)"/>
     <use xlink:href="#DejaVuSans-44" transform="translate(1186.546875 0)"/>
     <use xlink:href="#DejaVuSans-55" transform="translate(1247.828125 0)"/>
     <use xlink:href="#DejaVuSans-48" transform="translate(1286.734375 0)"/>
     <use xlink:href="#DejaVuSans-44" transform="translate(1348.265625 0)"/>
     <use xlink:href="#DejaVuSans-3" transform="translate(1409.546875 0)"/>
     <use xlink:href="#DejaVuSans-47" transform="translate(1441.328125 0)"/>
     <use xlink:href="#DejaVuSans-4c" transform="translate(1504.8125 0)"/>
     <use xlink:href="#DejaVuSans-56" transform="translate(1532.59375 0)"/>
     <use xlink:href="#DejaVuSans-57" transform="translate(1584.6875 0)"/>
     <use xlink:href="#DejaVuSans-55" transform="translate(1623.890625 0)"/>
     <use xlink:href="#DejaVuSans-4c" transform="translate(1665 0)"/>
     <use xlink:href="#DejaVuSans-45" transform="translate(1692.78125 0)"/>
     <use xlink:href="#DejaVuSans-58" transform="translate(1756.265625 0)"/>
     <use xlink:href="#DejaVuSans-57" transform="translate(1819.640625 0)"/>
     <use xlink:href="#DejaVuSans-4c" transform="translate(1858.84375 0)"/>
     <use xlink:href="#DejaVuSans-52" transform="translate(1886.625 0)"/>
     <use xlink:href="#DejaVuSans-51" transform="translate(1947.8125 0)"/>
    </g>
   </g>
   <g id="legend_1">
    <g id="patch_97">
     <path d="M 369.327344 39.676406 
L 389.327344 39.676406 
L 389.327344 32.676406 
L 369.327344 32.676406 
z
" style="fill: #1f77b4; opacity: 0.45"/>
    </g>
    <g id="text_15">
     <!-- test N=9883 -->
     <g transform="translate(397.327344 39.676406) scale(0.1 -0.1)">
      <defs>
       <path id="DejaVuSans-31" d="M 628 4666 
L 1478 4666 
L 3547 763 
L 3547 4666 
L 4159 4666 
L 4159 0 
L 3309 0 
L 1241 3903 
L 1241 0 
L 628 0 
L 628 4666 
z
" transform="scale(0.015625)"/>
       <path id="DejaVuSans-20" d="M 678 2906 
L 4684 2906 
L 4684 2381 
L 678 2381 
L 678 2906 
z
M 678 1631 
L 4684 1631 
L 4684 1100 
L 678 1100 
L 678 1631 
z
" transform="scale(0.015625)"/>
       <path id="DejaVuSans-1c" d="M 703 97 
L 703 672 
Q 941 559 1184 500 
Q 1428 441 1663 441 
Q 2288 441 2617 861 
Q 2947 1281 2994 2138 
Q 2813 1869 2534 1725 
Q 2256 1581 1919 1581 
Q 1219 1581 811 2004 
Q 403 2428 403 3163 
Q 403 3881 828 4315 
Q 1253 4750 1959 4750 
Q 2769 4750 3195 4129 
Q 3622 3509 3622 2328 
Q 3622 1225 3098 567 
Q 2575 -91 1691 -91 
Q 1453 -91 1209 -44 
Q 966 3 703 97 
z
M 1959 2075 
Q 2384 2075 2632 2365 
Q 2881 2656 2881 3163 
Q 2881 3666 2632 3958 
Q 2384 4250 1959 4250 
Q 1534 4250 1286 3958 
Q 1038 3666 1038 3163 
Q 1038 2656 1286 2365 
Q 1534 2075 1959 2075 
z
" transform="scale(0.015625)"/>
      </defs>
      <use xlink:href="#DejaVuSans-57"/>
      <use xlink:href="#DejaVuSans-48" transform="translate(39.203125 0)"/>
      <use xlink:href="#DejaVuSans-56" transform="translate(100.734375 0)"/>
      <use xlink:href="#DejaVuSans-57" transform="translate(152.828125 0)"/>
      <use xlink:href="#DejaVuSans-3" transform="translate(192.03125 0)"/>
      <use xlink:href="#DejaVuSans-31" transform="translate(223.8125 0)"/>
      <use xlink:href="#DejaVuSans-20" transform="translate(298.625 0)"/>
      <use xlink:href="#DejaVuSans-1c" transform="translate(382.421875 0)"/>
      <use xlink:href="#DejaVuSans-1b" transform="translate(446.046875 0)"/>
      <use xlink:href="#DejaVuSans-1b" transform="translate(509.671875 0)"/>
      <use xlink:href="#DejaVuSans-16" transform="translate(573.296875 0)"/>
     </g>
    </g>
    <g id="patch_98">
     <path d="M 369.327344 54.677187 
L 389.327344 54.677187 
L 389.327344 47.677187 
L 369.327344 47.677187 
z
" style="fill: #ff7f0e; opacity: 0.45"/>
    </g>
    <g id="text_16">
     <!-- train N=10435 -->
     <g transform="translate(397.327344 54.677187) scale(0.1 -0.1)">
      <defs>
       <path id="DejaVuSans-18" d="M 691 4666 
L 3169 4666 
L 3169 4134 
L 1269 4134 
L 1269 2991 
Q 1406 3038 1543 3061 
Q 1681 3084 1819 3084 
Q 2600 3084 3056 2656 
Q 3513 2228 3513 1497 
Q 3513 744 3044 326 
Q 2575 -91 1722 -91 
Q 1428 -91 1123 -41 
Q 819 9 494 109 
L 494 744 
Q 775 591 1075 516 
Q 1375 441 1709 441 
Q 2250 441 2565 725 
Q 2881 1009 2881 1497 
Q 2881 1984 2565 2268 
Q 2250 2553 1709 2553 
Q 1456 2553 1204 2497 
Q 953 2441 691 2322 
L 691 4666 
z
" transform="scale(0.015625)"/>
      </defs>
      <use xlink:href="#DejaVuSans-57"/>
      <use xlink:href="#DejaVuSans-55" transform="translate(39.203125 0)"/>
      <use xlink:href="#DejaVuSans-44" transform="translate(80.3125 0)"/>
      <use xlink:href="#DejaVuSans-4c" transform="translate(141.59375 0)"/>
      <use xlink:href="#DejaVuSans-51" transform="translate(169.375 0)"/>
      <use xlink:href="#DejaVuSans-3" transform="translate(232.75 0)"/>
      <use xlink:href="#DejaVuSans-31" transform="translate(264.53125 0)"/>
      <use xlink:href="#DejaVuSans-20" transform="translate(339.34375 0)"/>
      <use xlink:href="#DejaVuSans-14" transform="translate(423.140625 0)"/>
      <use xlink:href="#DejaVuSans-13" transform="translate(486.765625 0)"/>
      <use xlink:href="#DejaVuSans-17" transform="translate(550.390625 0)"/>
      <use xlink:href="#DejaVuSans-16" transform="translate(614.015625 0)"/>
      <use xlink:href="#DejaVuSans-18" transform="translate(677.640625 0)"/>
     </g>
    </g>
    <g id="patch_99">
     <path d="M 369.327344 69.677969 
L 389.327344 69.677969 
L 389.327344 62.677969 
L 369.327344 62.677969 
z
" style="fill: #2ca02c; opacity: 0.45"/>
    </g>
    <g id="text_17">
     <!-- validation N=10310 -->
     <g transform="translate(397.327344 69.677969) scale(0.1 -0.1)">
      <use xlink:href="#DejaVuSans-59"/>
      <use xlink:href="#DejaVuSans-44" transform="translate(59.1875 0)"/>
      <use xlink:href="#DejaVuSans-4f" transform="translate(120.46875 0)"/>
      <use xlink:href="#DejaVuSans-4c" transform="translate(148.25 0)"/>
      <use xlink:href="#DejaVuSans-47" transform="translate(176.03125 0)"/>
      <use xlink:href="#DejaVuSans-44" transform="translate(239.515625 0)"/>
      <use xlink:href="#DejaVuSans-57" transform="translate(300.796875 0)"/>
      <use xlink:href="#DejaVuSans-4c" transform="translate(340 0)"/>
      <use xlink:href="#DejaVuSans-52" transform="translate(367.78125 0)"/>
      <use xlink:href="#DejaVuSans-51" transform="translate(428.96875 0)"/>
      <use xlink:href="#DejaVuSans-3" transform="translate(492.34375 0)"/>
      <use xlink:href="#DejaVuSans-31" transform="translate(524.125 0)"/>
      <use xlink:href="#DejaVuSans-20" transform="translate(598.9375 0)"/>
      <use xlink:href="#DejaVuSans-14" transform="translate(682.734375 0)"/>
      <use xlink:href="#DejaVuSans-13" transform="translate(746.359375 0)"/>
      <use xlink:href="#DejaVuSans-16" transform="translate(809.984375 0)"/>
      <use xlink:href="#DejaVuSans-14" transform="translate(873.609375 0)"/>
      <use xlink:href="#DejaVuSans-13" transform="translate(937.234375 0)"/>
     </g>
    </g>
   </g>
  </g>
 </g>
 <defs>
  <clipPath id="p6340da121b">
   <rect x="60.013281" y="23.077969" width="446.4" height="249.48"/>
  </clipPath>
 </defs>
</svg>
