<?xml version="1.0" encoding="utf-8" standalone="no"?>
<!DOCTYPE svg PUBLIC "-//W3C//DTD SVG 1.1//EN"
  "http://www.w3.org/Graphics/SVG/1.1/DTD/svg11.dtd">
<svg xmlns:xlink="http://www.w3.org/1999/xlink" width="505.685781pt" height="327.389969pt" viewBox="0 0 505.685781 327.389969" xmlns="http://www.w3.org/2000/svg" version="1.1">
 <metadata>
  <rdf:RDF xmlns:dc="http://purl.org/dc/elements/1.1/" xmlns:cc="http://creativecommons.org/ns#" xmlns:rdf="http://www.w3.org/1999/02/22-rdf-syntax-ns#">
   <cc:Work>
    <dc:type rdf:resource="http://purl.org/dc/dcmitype/StillImage"/>
    <dc:date>2026-08-14T14:16:44.036698</dc:date>
    <dc:format>image/svg+xml</dc:format>
    <dc:creator>
     <cc:Agent>
      <dc:title>Matplotlib v3.11.1, https://matplotlib.org/</dc:title>
     </cc:Agent>
    </dc:creator>
   </cc:Work>
  </rdf:RDF>
 </metadata>
 <defs>
  <style type="text/css">*{stroke-linejoin: round; stroke-linecap: butt}</style>
 </defs>
 <g id="figure_1">
  <g id="patch_1">
   <path d="M 0 327.389969 
L 505.685781 327.389969 
L 505.685781 0 
L 0 0 
z
" style="fill: #ffffff"/>
  </g>
  <g id="axes_1">
   <g id="patch_2">
    <path d="M 40.925781 289.189969 
L 498.485781 289.189969 
L 498.485781 23.077969 
L 40.925781 23.077969 
z
" style="fill: #ffffff"/>
   </g>
   <g id="matplotlib.axis_1">
    <g id="xtick_1">
     <g id="line2d_1">
      <path d="M 61.723963 289.189969 
L 61.723963 23.077969 
" clip-path="url(#p73ca1d397c)" style="fill: none; stroke: #d9dee3; stroke-width: 0.7; stroke-linecap: square"/>
     </g>
     <g id="line2d_2">
      <defs>
       <path id="m24365e5a98" d="M 0 0 
L 0 3.5 
" style="stroke: #000000; stroke-width: 0.8"/>
      </defs>
      <g>
       <use xlink:href="#m24365e5a98" x="61.723963" y="289.189969" style="stroke: #000000; stroke-width: 0.8"/>
      </g>
     </g>
     <g id="text_1">
      <!-- 1 -->
      <g transform="translate(58.542713 303.787625) scale(0.1 -0.1)">
       <defs>
        <path id="DejaVuSans-14" d="M 794 531 
L 1825 531 
L 1825 4091 
L 703 3866 
L 703 4441 
L 1819 4666 
L 2450 4666 
L 2450 531 
L 3481 531 
L 3481 0 
L 794 0 
L 794 531 
z
" transform="scale(0.015625)"/>
       </defs>
       <use xlink:href="#DejaVuSans-14"/>
      </g>
     </g>
    </g>
    <g id="xtick_2">
     <g id="line2d_3">
      <path d="M 121.14734 289.189969 
L 121.14734 23.077969 
" clip-path="url(#p73ca1d397c)" style="fill: none; stroke: #d9dee3; stroke-width: 0.7; stroke-linecap: square"/>
     </g>
     <g id="line2d_4">
      <g>
       <use xlink:href="#m24365e5a98" x="121.14734" y="289.189969" style="stroke: #000000; stroke-width: 0.8"/>
      </g>
     </g>
     <g id="text_2">
      <!-- 2 -->
      <g transform="translate(117.96609 303.787625) scale(0.1 -0.1)">
       <defs>
        <path id="DejaVuSans-15" d="M 1228 531 
L 3431 531 
L 3431 0 
L 469 0 
L 469 531 
Q 828 903 1448 1529 
Q 2069 2156 2228 2338 
Q 2531 2678 2651 2914 
Q 2772 3150 2772 3378 
Q 2772 3750 2511 3984 
Q 2250 4219 1831 4219 
Q 1534 4219 1204 4116 
Q 875 4013 500 3803 
L 500 4441 
Q 881 4594 1212 4672 
Q 1544 4750 1819 4750 
Q 2544 4750 2975 4387 
Q 3406 4025 3406 3419 
Q 3406 3131 3298 2873 
Q 3191 2616 2906 2266 
Q 2828 2175 2409 1742 
Q 1991 1309 1228 531 
z
" transform="scale(0.015625)"/>
       </defs>
       <use xlink:href="#DejaVuSans-15"/>
      </g>
     </g>
    </g>
    <g id="xtick_3">
     <g id="line2d_5">
      <path d="M 180.570716 289.189969 
L 180.570716 23.077969 
" clip-path="url(#p73ca1d397c)" style="fill: none; stroke: #d9dee3; stroke-width: 0.7; stroke-linecap: square"/>
     </g>
     <g id="line2d_6">
      <g>
       <use xlink:href="#m24365e5a98" x="180.570716" y="289.189969" style="stroke: #000000; stroke-width: 0.8"/>
      </g>
     </g>
     <g id="text_3">
      <!-- 3 -->
      <g transform="translate(177.389466 303.787625) scale(0.1 -0.1)">
       <defs>
        <path id="DejaVuSans-16" d="M 2597 2516 
Q 3050 2419 3304 2112 
Q 3559 1806 3559 1356 
Q 3559 666 3084 287 
Q 2609 -91 1734 -91 
Q 1441 -91 1130 -33 
Q 819 25 488 141 
L 488 750 
Q 750 597 1062 519 
Q 1375 441 1716 441 
Q 2309 441 2620 675 
Q 2931 909 2931 1356 
Q 2931 1769 2642 2001 
Q 2353 2234 1838 2234 
L 1294 2234 
L 1294 2753 
L 1863 2753 
Q 2328 2753 2575 2939 
Q 2822 3125 2822 3475 
Q 2822 3834 2567 4026 
Q 2313 4219 1838 4219 
Q 1578 4219 1281 4162 
Q 984 4106 628 3988 
L 628 4550 
Q 988 4650 1302 4700 
Q 1616 4750 1894 4750 
Q 2613 4750 3031 4423 
Q 3450 4097 3450 3541 
Q 3450 3153 3228 2886 
Q 3006 2619 2597 2516 
z
" transform="scale(0.015625)"/>
       </defs>
       <use xlink:href="#DejaVuSans-16"/>
      </g>
     </g>
    </g>
    <g id="xtick_4">
     <g id="line2d_7">
      <path d="M 239.994093 289.189969 
L 239.994093 23.077969 
" clip-path="url(#p73ca1d397c)" style="fill: none; stroke: #d9dee3; stroke-width: 0.7; stroke-linecap: square"/>
     </g>
     <g id="line2d_8">
      <g>
       <use xlink:href="#m24365e5a98" x="239.994093" y="289.189969" style="stroke: #000000; stroke-width: 0.8"/>
      </g>
     </g>
     <g id="text_4">
      <!-- 4 -->
      <g transform="translate(236.812843 303.787625) scale(0.1 -0.1)">
       <defs>
        <path id="DejaVuSans-17" d="M 2419 4116 
L 825 1625 
L 2419 1625 
L 2419 4116 
z
M 2253 4666 
L 3047 4666 
L 3047 1625 
L 3713 1625 
L 3713 1100 
L 3047 1100 
L 3047 0 
L 2419 0 
L 2419 1100 
L 313 1100 
L 313 1709 
L 2253 4666 
z
" transform="scale(0.015625)"/>
       </defs>
       <use xlink:href="#DejaVuSans-17"/>
      </g>
     </g>
    </g>
    <g id="xtick_5">
     <g id="line2d_9">
      <path d="M 299.41747 289.189969 
L 299.41747 23.077969 
" clip-path="url(#p73ca1d397c)" style="fill: none; stroke: #d9dee3; stroke-width: 0.7; stroke-linecap: square"/>
     </g>
     <g id="line2d_10">
      <g>
       <use xlink:href="#m24365e5a98" x="299.41747" y="289.189969" style="stroke: #000000; stroke-width: 0.8"/>
      </g>
     </g>
     <g id="text_5">
      <!-- 5 -->
      <g transform="translate(296.23622 303.787625) scale(0.1 -0.1)">
       <defs>
        <path id="DejaVuSans-18" d="M 691 4666 
L 3169 4666 
L 3169 4134 
L 1269 4134 
L 1269 2991 
Q 1406 3038 1543 3061 
Q 1681 3084 1819 3084 
Q 2600 3084 3056 2656 
Q 3513 2228 3513 1497 
Q 3513 744 3044 326 
Q 2575 -91 1722 -91 
Q 1428 -91 1123 -41 
Q 819 9 494 109 
L 494 744 
Q 775 591 1075 516 
Q 1375 441 1709 441 
Q 2250 441 2565 725 
Q 2881 1009 2881 1497 
Q 2881 1984 2565 2268 
Q 2250 2553 1709 2553 
Q 1456 2553 1204 2497 
Q 953 2441 691 2322 
L 691 4666 
z
" transform="scale(0.015625)"/>
       </defs>
       <use xlink:href="#DejaVuSans-18"/>
      </g>
     </g>
    </g>
    <g id="xtick_6">
     <g id="line2d_11">
      <path d="M 358.840846 289.189969 
L 358.840846 23.077969 
" clip-path="url(#p73ca1d397c)" style="fill: none; stroke: #d9dee3; stroke-width: 0.7; stroke-linecap: square"/>
     </g>
     <g id="line2d_12">
      <g>
       <use xlink:href="#m24365e5a98" x="358.840846" y="289.189969" style="stroke: #000000; stroke-width: 0.8"/>
      </g>
     </g>
     <g id="text_6">
      <!-- 6 -->
      <g transform="translate(355.659596 303.787625) scale(0.1 -0.1)">
       <defs>
        <path id="DejaVuSans-19" d="M 2113 2584 
Q 1688 2584 1439 2293 
Q 1191 2003 1191 1497 
Q 1191 994 1439 701 
Q 1688 409 2113 409 
Q 2538 409 2786 701 
Q 3034 994 3034 1497 
Q 3034 2003 2786 2293 
Q 2538 2584 2113 2584 
z
M 3366 4563 
L 3366 3988 
Q 3128 4100 2886 4159 
Q 2644 4219 2406 4219 
Q 1781 4219 1451 3797 
Q 1122 3375 1075 2522 
Q 1259 2794 1537 2939 
Q 1816 3084 2150 3084 
Q 2853 3084 3261 2657 
Q 3669 2231 3669 1497 
Q 3669 778 3244 343 
Q 2819 -91 2113 -91 
Q 1303 -91 875 529 
Q 447 1150 447 2328 
Q 447 3434 972 4092 
Q 1497 4750 2381 4750 
Q 2619 4750 2861 4703 
Q 3103 4656 3366 4563 
z
" transform="scale(0.015625)"/>
       </defs>
       <use xlink:href="#DejaVuSans-19"/>
      </g>
     </g>
    </g>
    <g id="xtick_7">
     <g id="line2d_13">
      <path d="M 418.264223 289.189969 
L 418.264223 23.077969 
" clip-path="url(#p73ca1d397c)" style="fill: none; stroke: #d9dee3; stroke-width: 0.7; stroke-linecap: square"/>
     </g>
     <g id="line2d_14">
      <g>
       <use xlink:href="#m24365e5a98" x="418.264223" y="289.189969" style="stroke: #000000; stroke-width: 0.8"/>
      </g>
     </g>
     <g id="text_7">
      <!-- 7 -->
      <g transform="translate(415.082973 303.787625) scale(0.1 -0.1)">
       <defs>
        <path id="DejaVuSans-1a" d="M 525 4666 
L 3525 4666 
L 3525 4397 
L 1831 0 
L 1172 0 
L 2766 4134 
L 525 4134 
L 525 4666 
z
" transform="scale(0.015625)"/>
       </defs>
       <use xlink:href="#DejaVuSans-1a"/>
      </g>
     </g>
    </g>
    <g id="xtick_8">
     <g id="line2d_15">
      <path d="M 477.687599 289.189969 
L 477.687599 23.077969 
" clip-path="url(#p73ca1d397c)" style="fill: none; stroke: #d9dee3; stroke-width: 0.7; stroke-linecap: square"/>
     </g>
     <g id="line2d_16">
      <g>
       <use xlink:href="#m24365e5a98" x="477.687599" y="289.189969" style="stroke: #000000; stroke-width: 0.8"/>
      </g>
     </g>
     <g id="text_8">
      <!-- 8 -->
      <g transform="translate(474.506349 303.787625) scale(0.1 -0.1)">
       <defs>
        <path id="DejaVuSans-1b" d="M 2034 2216 
Q 1584 2216 1326 1975 
Q 1069 1734 1069 1313 
Q 1069 891 1326 650 
Q 1584 409 2034 409 
Q 2484 409 2743 651 
Q 3003 894 3003 1313 
Q 3003 1734 2745 1975 
Q 2488 2216 2034 2216 
z
M 1403 2484 
Q 997 2584 770 2862 
Q 544 3141 544 3541 
Q 544 4100 942 4425 
Q 1341 4750 2034 4750 
Q 2731 4750 3128 4425 
Q 3525 4100 3525 3541 
Q 3525 3141 3298 2862 
Q 3072 2584 2669 2484 
Q 3125 2378 3379 2068 
Q 3634 1759 3634 1313 
Q 3634 634 3220 271 
Q 2806 -91 2034 -91 
Q 1263 -91 848 271 
Q 434 634 434 1313 
Q 434 1759 690 2068 
Q 947 2378 1403 2484 
z
M 1172 3481 
Q 1172 3119 1398 2916 
Q 1625 2713 2034 2713 
Q 2441 2713 2670 2916 
Q 2900 3119 2900 3481 
Q 2900 3844 2670 4047 
Q 2441 4250 2034 4250 
Q 1625 4250 1398 4047 
Q 1172 3844 1172 3481 
z
" transform="scale(0.015625)"/>
       </defs>
       <use xlink:href="#DejaVuSans-1b"/>
      </g>
     </g>
    </g>
    <g id="text_9">
     <!-- EXP-F run -->
     <g transform="translate(245.555 317.787625) scale(0.1 -0.1)">
      <defs>
       <path id="DejaVuSans-28" d="M 628 4666 
L 3578 4666 
L 3578 4134 
L 1259 4134 
L 1259 2753 
L 3481 2753 
L 3481 2222 
L 1259 2222 
L 1259 531 
L 3634 531 
L 3634 0 
L 628 0 
L 628 4666 
z
" transform="scale(0.015625)"/>
       <path id="DejaVuSans-3b" d="M 403 4666 
L 1081 4666 
L 2241 2931 
L 3406 4666 
L 4084 4666 
L 2584 2425 
L 4184 0 
L 3506 0 
L 2194 1984 
L 872 0 
L 191 0 
L 1856 2491 
L 403 4666 
z
" transform="scale(0.015625)"/>
       <path id="DejaVuSans-33" d="M 1259 4147 
L 1259 2394 
L 2053 2394 
Q 2494 2394 2734 2622 
Q 2975 2850 2975 3272 
Q 2975 3691 2734 3919 
Q 2494 4147 2053 4147 
L 1259 4147 
z
M 628 4666 
L 2053 4666 
Q 2838 4666 3239 4311 
Q 3641 3956 3641 3272 
Q 3641 2581 3239 2228 
Q 2838 1875 2053 1875 
L 1259 1875 
L 1259 0 
L 628 0 
L 628 4666 
z
" transform="scale(0.015625)"/>
       <path id="DejaVuSans-10" d="M 313 2009 
L 1997 2009 
L 1997 1497 
L 313 1497 
L 313 2009 
z
" transform="scale(0.015625)"/>
       <path id="DejaVuSans-29" d="M 628 4666 
L 3309 4666 
L 3309 4134 
L 1259 4134 
L 1259 2759 
L 3109 2759 
L 3109 2228 
L 1259 2228 
L 1259 0 
L 628 0 
L 628 4666 
z
" transform="scale(0.015625)"/>
       <path id="DejaVuSans-3" transform="scale(0.015625)"/>
       <path id="DejaVuSans-55" d="M 2631 2963 
Q 2534 3019 2420 3045 
Q 2306 3072 2169 3072 
Q 1681 3072 1420 2755 
Q 1159 2438 1159 1844 
L 1159 0 
L 581 0 
L 581 3500 
L 1159 3500 
L 1159 2956 
Q 1341 3275 1631 3429 
Q 1922 3584 2338 3584 
Q 2397 3584 2469 3576 
Q 2541 3569 2628 3553 
L 2631 2963 
z
" transform="scale(0.015625)"/>
       <path id="DejaVuSans-58" d="M 544 1381 
L 544 3500 
L 1119 3500 
L 1119 1403 
Q 1119 906 1312 657 
Q 1506 409 1894 409 
Q 2359 409 2629 706 
Q 2900 1003 2900 1516 
L 2900 3500 
L 3475 3500 
L 3475 0 
L 2900 0 
L 2900 538 
Q 2691 219 2414 64 
Q 2138 -91 1772 -91 
Q 1169 -91 856 284 
Q 544 659 544 1381 
z
M 1991 3584 
L 1991 3584 
z
" transform="scale(0.015625)"/>
       <path id="DejaVuSans-51" d="M 3513 2113 
L 3513 0 
L 2938 0 
L 2938 2094 
Q 2938 2591 2744 2837 
Q 2550 3084 2163 3084 
Q 1697 3084 1428 2787 
Q 1159 2491 1159 1978 
L 1159 0 
L 581 0 
L 581 3500 
L 1159 3500 
L 1159 2956 
Q 1366 3272 1645 3428 
Q 1925 3584 2291 3584 
Q 2894 3584 3203 3211 
Q 3513 2838 3513 2113 
z
" transform="scale(0.015625)"/>
      </defs>
      <use xlink:href="#DejaVuSans-28"/>
      <use xlink:href="#DejaVuSans-3b" transform="translate(63.1875 0)"/>
      <use xlink:href="#DejaVuSans-33" transform="translate(131.6875 0)"/>
      <use xlink:href="#DejaVuSans-10" transform="translate(189.78125 0)"/>
      <use xlink:href="#DejaVuSans-29" transform="translate(225.859375 0)"/>
      <use xlink:href="#DejaVuSans-3" transform="translate(283.375 0)"/>
      <use xlink:href="#DejaVuSans-55" transform="translate(315.15625 0)"/>
      <use xlink:href="#DejaVuSans-58" transform="translate(356.265625 0)"/>
      <use xlink:href="#DejaVuSans-51" transform="translate(419.640625 0)"/>
     </g>
    </g>
   </g>
   <g id="matplotlib.axis_2">
    <g id="ytick_1">
     <g id="line2d_17">
      <path d="M 40.925781 268.426928 
L 498.485781 268.426928 
" clip-path="url(#p73ca1d397c)" style="fill: none; stroke: #d9dee3; stroke-width: 0.7; stroke-linecap: square"/>
     </g>
     <g id="line2d_18">
      <defs>
       <path id="m1f99bbfd48" d="M 0 0 
L -3.5 0 
" style="stroke: #000000; stroke-width: 0.8"/>
      </defs>
      <g>
       <use xlink:href="#m1f99bbfd48" x="40.925781" y="268.426928" style="stroke: #000000; stroke-width: 0.8"/>
      </g>
     </g>
     <g id="text_10">
      <!-- 5 -->
      <g transform="translate(27.563281 272.225756) scale(0.1 -0.1)">
       <use xlink:href="#DejaVuSans-18"/>
      </g>
     </g>
    </g>
    <g id="ytick_2">
     <g id="line2d_19">
      <path d="M 40.925781 231.304787 
L 498.485781 231.304787 
" clip-path="url(#p73ca1d397c)" style="fill: none; stroke: #d9dee3; stroke-width: 0.7; stroke-linecap: square"/>
     </g>
     <g id="line2d_20">
      <g>
       <use xlink:href="#m1f99bbfd48" x="40.925781" y="231.304787" style="stroke: #000000; stroke-width: 0.8"/>
      </g>
     </g>
     <g id="text_11">
      <!-- 10 -->
      <g transform="translate(21.200781 235.103615) scale(0.1 -0.1)">
       <defs>
        <path id="DejaVuSans-13" d="M 2034 4250 
Q 1547 4250 1301 3770 
Q 1056 3291 1056 2328 
Q 1056 1369 1301 889 
Q 1547 409 2034 409 
Q 2525 409 2770 889 
Q 3016 1369 3016 2328 
Q 3016 3291 2770 3770 
Q 2525 4250 2034 4250 
z
M 2034 4750 
Q 2819 4750 3233 4129 
Q 3647 3509 3647 2328 
Q 3647 1150 3233 529 
Q 2819 -91 2034 -91 
Q 1250 -91 836 529 
Q 422 1150 422 2328 
Q 422 3509 836 4129 
Q 1250 4750 2034 4750 
z
" transform="scale(0.015625)"/>
       </defs>
       <use xlink:href="#DejaVuSans-14"/>
       <use xlink:href="#DejaVuSans-13" transform="translate(63.625 0)"/>
      </g>
     </g>
    </g>
    <g id="ytick_3">
     <g id="line2d_21">
      <path d="M 40.925781 194.182646 
L 498.485781 194.182646 
" clip-path="url(#p73ca1d397c)" style="fill: none; stroke: #d9dee3; stroke-width: 0.7; stroke-linecap: square"/>
     </g>
     <g id="line2d_22">
      <g>
       <use xlink:href="#m1f99bbfd48" x="40.925781" y="194.182646" style="stroke: #000000; stroke-width: 0.8"/>
      </g>
     </g>
     <g id="text_12">
      <!-- 15 -->
      <g transform="translate(21.200781 197.981474) scale(0.1 -0.1)">
       <use xlink:href="#DejaVuSans-14"/>
       <use xlink:href="#DejaVuSans-18" transform="translate(63.625 0)"/>
      </g>
     </g>
    </g>
    <g id="ytick_4">
     <g id="line2d_23">
      <path d="M 40.925781 157.060505 
L 498.485781 157.060505 
" clip-path="url(#p73ca1d397c)" style="fill: none; stroke: #d9dee3; stroke-width: 0.7; stroke-linecap: square"/>
     </g>
     <g id="line2d_24">
      <g>
       <use xlink:href="#m1f99bbfd48" x="40.925781" y="157.060505" style="stroke: #000000; stroke-width: 0.8"/>
      </g>
     </g>
     <g id="text_13">
      <!-- 20 -->
      <g transform="translate(21.200781 160.859334) scale(0.1 -0.1)">
       <use xlink:href="#DejaVuSans-15"/>
       <use xlink:href="#DejaVuSans-13" transform="translate(63.625 0)"/>
      </g>
     </g>
    </g>
    <g id="ytick_5">
     <g id="line2d_25">
      <path d="M 40.925781 119.938365 
L 498.485781 119.938365 
" clip-path="url(#p73ca1d397c)" style="fill: none; stroke: #d9dee3; stroke-width: 0.7; stroke-linecap: square"/>
     </g>
     <g id="line2d_26">
      <g>
       <use xlink:href="#m1f99bbfd48" x="40.925781" y="119.938365" style="stroke: #000000; stroke-width: 0.8"/>
      </g>
     </g>
     <g id="text_14">
      <!-- 25 -->
      <g transform="translate(21.200781 123.737193) scale(0.1 -0.1)">
       <use xlink:href="#DejaVuSans-15"/>
       <use xlink:href="#DejaVuSans-18" transform="translate(63.625 0)"/>
      </g>
     </g>
    </g>
    <g id="ytick_6">
     <g id="line2d_27">
      <path d="M 40.925781 82.816224 
L 498.485781 82.816224 
" clip-path="url(#p73ca1d397c)" style="fill: none; stroke: #d9dee3; stroke-width: 0.7; stroke-linecap: square"/>
     </g>
     <g id="line2d_28">
      <g>
       <use xlink:href="#m1f99bbfd48" x="40.925781" y="82.816224" style="stroke: #000000; stroke-width: 0.8"/>
      </g>
     </g>
     <g id="text_15">
      <!-- 30 -->
      <g transform="translate(21.200781 86.615052) scale(0.1 -0.1)">
       <use xlink:href="#DejaVuSans-16"/>
       <use xlink:href="#DejaVuSans-13" transform="translate(63.625 0)"/>
      </g>
     </g>
    </g>
    <g id="ytick_7">
     <g id="line2d_29">
      <path d="M 40.925781 45.694083 
L 498.485781 45.694083 
" clip-path="url(#p73ca1d397c)" style="fill: none; stroke: #d9dee3; stroke-width: 0.7; stroke-linecap: square"/>
     </g>
     <g id="line2d_30">
      <g>
       <use xlink:href="#m1f99bbfd48" x="40.925781" y="45.694083" style="stroke: #000000; stroke-width: 0.8"/>
      </g>
     </g>
     <g id="text_16">
      <!-- 35 -->
      <g transform="translate(21.200781 49.492911) scale(0.1 -0.1)">
       <use xlink:href="#DejaVuSans-16"/>
       <use xlink:href="#DejaVuSans-18" transform="translate(63.625 0)"/>
      </g>
     </g>
    </g>
    <g id="text_17">
     <!-- Percentage points -->
     <g transform="translate(14.798437 201.207406) rotate(-90) scale(0.1 -0.1)">
      <defs>
       <path id="DejaVuSans-48" d="M 3597 1894 
L 3597 1613 
L 953 1613 
Q 991 1019 1311 708 
Q 1631 397 2203 397 
Q 2534 397 2845 478 
Q 3156 559 3463 722 
L 3463 178 
Q 3153 47 2828 -22 
Q 2503 -91 2169 -91 
Q 1331 -91 842 396 
Q 353 884 353 1716 
Q 353 2575 817 3079 
Q 1281 3584 2069 3584 
Q 2775 3584 3186 3129 
Q 3597 2675 3597 1894 
z
M 3022 2063 
Q 3016 2534 2758 2815 
Q 2500 3097 2075 3097 
Q 1594 3097 1305 2825 
Q 1016 2553 972 2059 
L 3022 2063 
z
" transform="scale(0.015625)"/>
       <path id="DejaVuSans-46" d="M 3122 3366 
L 3122 2828 
Q 2878 2963 2633 3030 
Q 2388 3097 2138 3097 
Q 1578 3097 1268 2742 
Q 959 2388 959 1747 
Q 959 1106 1268 751 
Q 1578 397 2138 397 
Q 2388 397 2633 464 
Q 2878 531 3122 666 
L 3122 134 
Q 2881 22 2623 -34 
Q 2366 -91 2075 -91 
Q 1284 -91 818 406 
Q 353 903 353 1747 
Q 353 2603 823 3093 
Q 1294 3584 2113 3584 
Q 2378 3584 2631 3529 
Q 2884 3475 3122 3366 
z
" transform="scale(0.015625)"/>
       <path id="DejaVuSans-57" d="M 1172 4494 
L 1172 3500 
L 2356 3500 
L 2356 3053 
L 1172 3053 
L 1172 1153 
Q 1172 725 1289 603 
Q 1406 481 1766 481 
L 2356 481 
L 2356 0 
L 1766 0 
Q 1100 0 847 248 
Q 594 497 594 1153 
L 594 3053 
L 172 3053 
L 172 3500 
L 594 3500 
L 594 4494 
L 1172 4494 
z
" transform="scale(0.015625)"/>
       <path id="DejaVuSans-44" d="M 2194 1759 
Q 1497 1759 1228 1600 
Q 959 1441 959 1056 
Q 959 750 1161 570 
Q 1363 391 1709 391 
Q 2188 391 2477 730 
Q 2766 1069 2766 1631 
L 2766 1759 
L 2194 1759 
z
M 3341 1997 
L 3341 0 
L 2766 0 
L 2766 531 
Q 2569 213 2275 61 
Q 1981 -91 1556 -91 
Q 1019 -91 701 211 
Q 384 513 384 1019 
Q 384 1609 779 1909 
Q 1175 2209 1959 2209 
L 2766 2209 
L 2766 2266 
Q 2766 2663 2505 2880 
Q 2244 3097 1772 3097 
Q 1472 3097 1187 3025 
Q 903 2953 641 2809 
L 641 3341 
Q 956 3463 1253 3523 
Q 1550 3584 1831 3584 
Q 2591 3584 2966 3190 
Q 3341 2797 3341 1997 
z
" transform="scale(0.015625)"/>
       <path id="DejaVuSans-4a" d="M 2906 1791 
Q 2906 2416 2648 2759 
Q 2391 3103 1925 3103 
Q 1463 3103 1205 2759 
Q 947 2416 947 1791 
Q 947 1169 1205 825 
Q 1463 481 1925 481 
Q 2391 481 2648 825 
Q 2906 1169 2906 1791 
z
M 3481 434 
Q 3481 -459 3084 -895 
Q 2688 -1331 1869 -1331 
Q 1566 -1331 1297 -1286 
Q 1028 -1241 775 -1147 
L 775 -588 
Q 1028 -725 1275 -790 
Q 1522 -856 1778 -856 
Q 2344 -856 2625 -561 
Q 2906 -266 2906 331 
L 2906 616 
Q 2728 306 2450 153 
Q 2172 0 1784 0 
Q 1141 0 747 490 
Q 353 981 353 1791 
Q 353 2603 747 3093 
Q 1141 3584 1784 3584 
Q 2172 3584 2450 3431 
Q 2728 3278 2906 2969 
L 2906 3500 
L 3481 3500 
L 3481 434 
z
" transform="scale(0.015625)"/>
       <path id="DejaVuSans-53" d="M 1159 525 
L 1159 -1331 
L 581 -1331 
L 581 3500 
L 1159 3500 
L 1159 2969 
Q 1341 3281 1617 3432 
Q 1894 3584 2278 3584 
Q 2916 3584 3314 3078 
Q 3713 2572 3713 1747 
Q 3713 922 3314 415 
Q 2916 -91 2278 -91 
Q 1894 -91 1617 61 
Q 1341 213 1159 525 
z
M 3116 1747 
Q 3116 2381 2855 2742 
Q 2594 3103 2138 3103 
Q 1681 3103 1420 2742 
Q 1159 2381 1159 1747 
Q 1159 1113 1420 752 
Q 1681 391 2138 391 
Q 2594 391 2855 752 
Q 3116 1113 3116 1747 
z
" transform="scale(0.015625)"/>
       <path id="DejaVuSans-52" d="M 1959 3097 
Q 1497 3097 1228 2736 
Q 959 2375 959 1747 
Q 959 1119 1226 758 
Q 1494 397 1959 397 
Q 2419 397 2687 759 
Q 2956 1122 2956 1747 
Q 2956 2369 2687 2733 
Q 2419 3097 1959 3097 
z
M 1959 3584 
Q 2709 3584 3137 3096 
Q 3566 2609 3566 1747 
Q 3566 888 3137 398 
Q 2709 -91 1959 -91 
Q 1206 -91 779 398 
Q 353 888 353 1747 
Q 353 2609 779 3096 
Q 1206 3584 1959 3584 
z
" transform="scale(0.015625)"/>
       <path id="DejaVuSans-4c" d="M 603 3500 
L 1178 3500 
L 1178 0 
L 603 0 
L 603 3500 
z
M 603 4863 
L 1178 4863 
L 1178 4134 
L 603 4134 
L 603 4863 
z
" transform="scale(0.015625)"/>
       <path id="DejaVuSans-56" d="M 2834 3397 
L 2834 2853 
Q 2591 2978 2328 3040 
Q 2066 3103 1784 3103 
Q 1356 3103 1142 2972 
Q 928 2841 928 2578 
Q 928 2378 1081 2264 
Q 1234 2150 1697 2047 
L 1894 2003 
Q 2506 1872 2764 1633 
Q 3022 1394 3022 966 
Q 3022 478 2636 193 
Q 2250 -91 1575 -91 
Q 1294 -91 989 -36 
Q 684 19 347 128 
L 347 722 
Q 666 556 975 473 
Q 1284 391 1588 391 
Q 1994 391 2212 530 
Q 2431 669 2431 922 
Q 2431 1156 2273 1281 
Q 2116 1406 1581 1522 
L 1381 1569 
Q 847 1681 609 1914 
Q 372 2147 372 2553 
Q 372 3047 722 3315 
Q 1072 3584 1716 3584 
Q 2034 3584 2315 3537 
Q 2597 3491 2834 3397 
z
" transform="scale(0.015625)"/>
      </defs>
      <use xlink:href="#DejaVuSans-33"/>
      <use xlink:href="#DejaVuSans-48" transform="translate(56.734375 0)"/>
      <use xlink:href="#DejaVuSans-55" transform="translate(118.265625 0)"/>
      <use xlink:href="#DejaVuSans-46" transform="translate(157.171875 0)"/>
      <use xlink:href="#DejaVuSans-48" transform="translate(212.15625 0)"/>
      <use xlink:href="#DejaVuSans-51" transform="translate(273.6875 0)"/>
      <use xlink:href="#DejaVuSans-57" transform="translate(337.0625 0)"/>
      <use xlink:href="#DejaVuSans-44" transform="translate(376.265625 0)"/>
      <use xlink:href="#DejaVuSans-4a" transform="translate(437.546875 0)"/>
      <use xlink:href="#DejaVuSans-48" transform="translate(501.03125 0)"/>
      <use xlink:href="#DejaVuSans-3" transform="translate(562.5625 0)"/>
      <use xlink:href="#DejaVuSans-53" transform="translate(594.34375 0)"/>
      <use xlink:href="#DejaVuSans-52" transform="translate(657.828125 0)"/>
      <use xlink:href="#DejaVuSans-4c" transform="translate(719.015625 0)"/>
      <use xlink:href="#DejaVuSans-51" transform="translate(746.796875 0)"/>
      <use xlink:href="#DejaVuSans-57" transform="translate(810.171875 0)"/>
      <use xlink:href="#DejaVuSans-56" transform="translate(849.375 0)"/>
     </g>
    </g>
   </g>
   <g id="line2d_31">
    <path d="M 61.723963 261.928905 
L 121.14734 261.228505 
L 180.570716 263.171865 
L 239.994093 261.592961 
L 299.41747 262.668682 
L 358.840846 262.958725 
L 418.264223 266.235232 
L 477.687599 262.23497 
" clip-path="url(#p73ca1d397c)" style="fill: none; stroke: #24476b; stroke-width: 1.5; stroke-linecap: square"/>
    <defs>
     <path id="m1e115d4f3f" d="M 0 3 
C 0.795609 3 1.55874 2.683901 2.12132 2.12132 
C 2.683901 1.55874 3 0.795609 3 0 
C 3 -0.795609 2.683901 -1.55874 2.12132 -2.12132 
C 1.55874 -2.683901 0.795609 -3 0 -3 
C -0.795609 -3 -1.55874 -2.683901 -2.12132 -2.12132 
C -2.683901 -1.55874 -3 -0.795609 -3 0 
C -3 0.795609 -2.683901 1.55874 -2.12132 2.12132 
C -1.55874 2.683901 -0.795609 3 0 3 
z
" style="stroke: #24476b"/>
    </defs>
    <g clip-path="url(#p73ca1d397c)">
     <use xlink:href="#m1e115d4f3f" x="61.723963" y="261.928905" style="fill: #24476b; stroke: #24476b"/>
     <use xlink:href="#m1e115d4f3f" x="121.14734" y="261.228505" style="fill: #24476b; stroke: #24476b"/>
     <use xlink:href="#m1e115d4f3f" x="180.570716" y="263.171865" style="fill: #24476b; stroke: #24476b"/>
     <use xlink:href="#m1e115d4f3f" x="239.994093" y="261.592961" style="fill: #24476b; stroke: #24476b"/>
     <use xlink:href="#m1e115d4f3f" x="299.41747" y="262.668682" style="fill: #24476b; stroke: #24476b"/>
     <use xlink:href="#m1e115d4f3f" x="358.840846" y="262.958725" style="fill: #24476b; stroke: #24476b"/>
     <use xlink:href="#m1e115d4f3f" x="418.264223" y="266.235232" style="fill: #24476b; stroke: #24476b"/>
     <use xlink:href="#m1e115d4f3f" x="477.687599" y="262.23497" style="fill: #24476b; stroke: #24476b"/>
    </g>
   </g>
   <g id="line2d_32">
    <path d="M 61.723963 276.471294 
L 121.14734 270.667314 
L 180.570716 277.093969 
L 239.994093 274.035731 
L 299.41747 259.706226 
L 358.840846 264.764429 
L 418.264223 266.70463 
L 477.687599 266.723149 
" clip-path="url(#p73ca1d397c)" style="fill: none; stroke: #2a788e; stroke-width: 1.5; stroke-linecap: square"/>
    <defs>
     <path id="m1be6db96d7" d="M 0 3 
C 0.795609 3 1.55874 2.683901 2.12132 2.12132 
C 2.683901 1.55874 3 0.795609 3 0 
C 3 -0.795609 2.683901 -1.55874 2.12132 -2.12132 
C 1.55874 -2.683901 0.795609 -3 0 -3 
C -0.795609 -3 -1.55874 -2.683901 -2.12132 -2.12132 
C -2.683901 -1.55874 -3 -0.795609 -3 0 
C -3 0.795609 -2.683901 1.55874 -2.12132 2.12132 
C -1.55874 2.683901 -0.795609 3 0 3 
z
" style="stroke: #2a788e"/>
    </defs>
    <g clip-path="url(#p73ca1d397c)">
     <use xlink:href="#m1be6db96d7" x="61.723963" y="276.471294" style="fill: #2a788e; stroke: #2a788e"/>
     <use xlink:href="#m1be6db96d7" x="121.14734" y="270.667314" style="fill: #2a788e; stroke: #2a788e"/>
     <use xlink:href="#m1be6db96d7" x="180.570716" y="277.093969" style="fill: #2a788e; stroke: #2a788e"/>
     <use xlink:href="#m1be6db96d7" x="239.994093" y="274.035731" style="fill: #2a788e; stroke: #2a788e"/>
     <use xlink:href="#m1be6db96d7" x="299.41747" y="259.706226" style="fill: #2a788e; stroke: #2a788e"/>
     <use xlink:href="#m1be6db96d7" x="358.840846" y="264.764429" style="fill: #2a788e; stroke: #2a788e"/>
     <use xlink:href="#m1be6db96d7" x="418.264223" y="266.70463" style="fill: #2a788e; stroke: #2a788e"/>
     <use xlink:href="#m1be6db96d7" x="477.687599" y="266.723149" style="fill: #2a788e; stroke: #2a788e"/>
    </g>
   </g>
   <g id="line2d_33">
    <path d="M 61.723963 268.878155 
L 121.14734 35.173969 
L 180.570716 266.868206 
L 239.994093 247.866106 
L 299.41747 253.08434 
L 358.840846 268.103582 
L 418.264223 259.227049 
L 477.687599 267.676678 
" clip-path="url(#p73ca1d397c)" style="fill: none; stroke: #56a86c; stroke-width: 1.5; stroke-linecap: square"/>
    <defs>
     <path id="m5d7aebfb3f" d="M 0 3 
C 0.795609 3 1.55874 2.683901 2.12132 2.12132 
C 2.683901 1.55874 3 0.795609 3 0 
C 3 -0.795609 2.683901 -1.55874 2.12132 -2.12132 
C 1.55874 -2.683901 0.795609 -3 0 -3 
C -0.795609 -3 -1.55874 -2.683901 -2.12132 -2.12132 
C -2.683901 -1.55874 -3 -0.795609 -3 0 
C -3 0.795609 -2.683901 1.55874 -2.12132 2.12132 
C -1.55874 2.683901 -0.795609 3 0 3 
z
" style="stroke: #56a86c"/>
    </defs>
    <g clip-path="url(#p73ca1d397c)">
     <use xlink:href="#m5d7aebfb3f" x="61.723963" y="268.878155" style="fill: #56a86c; stroke: #56a86c"/>
     <use xlink:href="#m5d7aebfb3f" x="121.14734" y="35.173969" style="fill: #56a86c; stroke: #56a86c"/>
     <use xlink:href="#m5d7aebfb3f" x="180.570716" y="266.868206" style="fill: #56a86c; stroke: #56a86c"/>
     <use xlink:href="#m5d7aebfb3f" x="239.994093" y="247.866106" style="fill: #56a86c; stroke: #56a86c"/>
     <use xlink:href="#m5d7aebfb3f" x="299.41747" y="253.08434" style="fill: #56a86c; stroke: #56a86c"/>
     <use xlink:href="#m5d7aebfb3f" x="358.840846" y="268.103582" style="fill: #56a86c; stroke: #56a86c"/>
     <use xlink:href="#m5d7aebfb3f" x="418.264223" y="259.227049" style="fill: #56a86c; stroke: #56a86c"/>
     <use xlink:href="#m5d7aebfb3f" x="477.687599" y="267.676678" style="fill: #56a86c; stroke: #56a86c"/>
    </g>
   </g>
   <g id="patch_3">
    <path d="M 40.925781 289.189969 
L 40.925781 23.077969 
" style="fill: none; stroke: #444444; stroke-width: 0.8; stroke-linejoin: miter; stroke-linecap: square"/>
   </g>
   <g id="patch_4">
    <path d="M 498.485781 289.189969 
L 498.485781 23.077969 
" style="fill: none; stroke: #444444; stroke-width: 0.8; stroke-linejoin: miter; stroke-linecap: square"/>
   </g>
   <g id="patch_5">
    <path d="M 40.925781 289.189969 
L 498.485781 289.189969 
" style="fill: none; stroke: #444444; stroke-width: 0.8; stroke-linejoin: miter; stroke-linecap: square"/>
   </g>
   <g id="patch_6">
    <path d="M 40.925781 23.077969 
L 498.485781 23.077969 
" style="fill: none; stroke: #444444; stroke-width: 0.8; stroke-linejoin: miter; stroke-linecap: square"/>
   </g>
   <g id="text_18">
    <!-- EXP-F end-of-run damage-state trajectory -->
    <g transform="translate(134.223437 17.077969) scale(0.13 -0.13)">
     <defs>
      <path id="DejaVuSans-47" d="M 2906 2969 
L 2906 4863 
L 3481 4863 
L 3481 0 
L 2906 0 
L 2906 525 
Q 2725 213 2448 61 
Q 2172 -91 1784 -91 
Q 1150 -91 751 415 
Q 353 922 353 1747 
Q 353 2572 751 3078 
Q 1150 3584 1784 3584 
Q 2172 3584 2448 3432 
Q 2725 3281 2906 2969 
z
M 947 1747 
Q 947 1113 1208 752 
Q 1469 391 1925 391 
Q 2381 391 2643 752 
Q 2906 1113 2906 1747 
Q 2906 2381 2643 2742 
Q 2381 3103 1925 3103 
Q 1469 3103 1208 2742 
Q 947 2381 947 1747 
z
" transform="scale(0.015625)"/>
      <path id="DejaVuSans-49" d="M 2375 4863 
L 2375 4384 
L 1825 4384 
Q 1516 4384 1395 4259 
Q 1275 4134 1275 3809 
L 1275 3500 
L 2222 3500 
L 2222 3053 
L 1275 3053 
L 1275 0 
L 697 0 
L 697 3053 
L 147 3053 
L 147 3500 
L 697 3500 
L 697 3744 
Q 697 4328 969 4595 
Q 1241 4863 1831 4863 
L 2375 4863 
z
" transform="scale(0.015625)"/>
      <path id="DejaVuSans-50" d="M 3328 2828 
Q 3544 3216 3844 3400 
Q 4144 3584 4550 3584 
Q 5097 3584 5394 3201 
Q 5691 2819 5691 2113 
L 5691 0 
L 5113 0 
L 5113 2094 
Q 5113 2597 4934 2840 
Q 4756 3084 4391 3084 
Q 3944 3084 3684 2787 
Q 3425 2491 3425 1978 
L 3425 0 
L 2847 0 
L 2847 2094 
Q 2847 2600 2669 2842 
Q 2491 3084 2119 3084 
Q 1678 3084 1418 2786 
Q 1159 2488 1159 1978 
L 1159 0 
L 581 0 
L 581 3500 
L 1159 3500 
L 1159 2956 
Q 1356 3278 1631 3431 
Q 1906 3584 2284 3584 
Q 2666 3584 2933 3390 
Q 3200 3197 3328 2828 
z
" transform="scale(0.015625)"/>
      <path id="DejaVuSans-4d" d="M 603 3500 
L 1178 3500 
L 1178 -63 
Q 1178 -731 923 -1031 
Q 669 -1331 103 -1331 
L -116 -1331 
L -116 -844 
L 38 -844 
Q 366 -844 484 -692 
Q 603 -541 603 -63 
L 603 3500 
z
M 603 4863 
L 1178 4863 
L 1178 4134 
L 603 4134 
L 603 4863 
z
" transform="scale(0.015625)"/>
      <path id="DejaVuSans-5c" d="M 2059 -325 
Q 1816 -950 1584 -1140 
Q 1353 -1331 966 -1331 
L 506 -1331 
L 506 -850 
L 844 -850 
Q 1081 -850 1212 -737 
Q 1344 -625 1503 -206 
L 1606 56 
L 191 3500 
L 800 3500 
L 1894 763 
L 2988 3500 
L 3597 3500 
L 2059 -325 
z
" transform="scale(0.015625)"/>
     </defs>
     <use xlink:href="#DejaVuSans-28"/>
     <use xlink:href="#DejaVuSans-3b" transform="translate(63.1875 0)"/>
     <use xlink:href="#DejaVuSans-33" transform="translate(131.6875 0)"/>
     <use xlink:href="#DejaVuSans-10" transform="translate(189.78125 0)"/>
     <use xlink:href="#DejaVuSans-29" transform="translate(225.859375 0)"/>
     <use xlink:href="#DejaVuSans-3" transform="translate(283.375 0)"/>
     <use xlink:href="#DejaVuSans-48" transform="translate(315.15625 0)"/>
     <use xlink:href="#DejaVuSans-51" transform="translate(376.6875 0)"/>
     <use xlink:href="#DejaVuSans-47" transform="translate(440.0625 0)"/>
     <use xlink:href="#DejaVuSans-10" transform="translate(503.546875 0)"/>
     <use xlink:href="#DejaVuSans-52" transform="translate(541.484375 0)"/>
     <use xlink:href="#DejaVuSans-49" transform="translate(602.671875 0)"/>
     <use xlink:href="#DejaVuSans-10" transform="translate(632.40625 0)"/>
     <use xlink:href="#DejaVuSans-55" transform="translate(668.484375 0)"/>
     <use xlink:href="#DejaVuSans-58" transform="translate(709.59375 0)"/>
     <use xlink:href="#DejaVuSans-51" transform="translate(772.96875 0)"/>
     <use xlink:href="#DejaVuSans-3" transform="translate(836.34375 0)"/>
     <use xlink:href="#DejaVuSans-47" transform="translate(868.125 0)"/>
     <use xlink:href="#DejaVuSans-44" transform="translate(931.609375 0)"/>
     <use xlink:href="#DejaVuSans-50" transform="translate(992.890625 0)"/>
     <use xlink:href="#DejaVuSans-44" transform="translate(1090.296875 0)"/>
     <use xlink:href="#DejaVuSans-4a" transform="translate(1151.578125 0)"/>
     <use xlink:href="#DejaVuSans-48" transform="translate(1215.0625 0)"/>
     <use xlink:href="#DejaVuSans-10" transform="translate(1276.59375 0)"/>
     <use xlink:href="#DejaVuSans-56" transform="translate(1312.671875 0)"/>
     <use xlink:href="#DejaVuSans-57" transform="translate(1364.765625 0)"/>
     <use xlink:href="#DejaVuSans-44" transform="translate(1403.96875 0)"/>
     <use xlink:href="#DejaVuSans-57" transform="translate(1465.25 0)"/>
     <use xlink:href="#DejaVuSans-48" transform="translate(1504.453125 0)"/>
     <use xlink:href="#DejaVuSans-3" transform="translate(1565.984375 0)"/>
     <use xlink:href="#DejaVuSans-57" transform="translate(1597.765625 0)"/>
     <use xlink:href="#DejaVuSans-55" transform="translate(1636.96875 0)"/>
     <use xlink:href="#DejaVuSans-44" transform="translate(1678.078125 0)"/>
     <use xlink:href="#DejaVuSans-4d" transform="translate(1739.359375 0)"/>
     <use xlink:href="#DejaVuSans-48" transform="translate(1767.140625 0)"/>
     <use xlink:href="#DejaVuSans-46" transform="translate(1828.671875 0)"/>
     <use xlink:href="#DejaVuSans-57" transform="translate(1883.65625 0)"/>
     <use xlink:href="#DejaVuSans-52" transform="translate(1922.859375 0)"/>
     <use xlink:href="#DejaVuSans-55" transform="translate(1984.046875 0)"/>
     <use xlink:href="#DejaVuSans-5c" transform="translate(2025.15625 0)"/>
    </g>
   </g>
   <g id="legend_1">
    <g id="line2d_34">
     <path d="M 358.605781 33.556719 
L 366.605781 33.556719 
L 374.605781 33.556719 
" style="fill: none; stroke: #24476b; stroke-width: 1.5; stroke-linecap: square"/>
     <g>
      <use xlink:href="#m1e115d4f3f" x="366.605781" y="33.556719" style="fill: #24476b; stroke: #24476b"/>
     </g>
    </g>
    <g id="text_19">
     <!-- patchtst_sensor_regression -->
     <g transform="translate(381.005781 36.356719) scale(0.08 -0.08)">
      <defs>
       <path id="DejaVuSans-4b" d="M 3513 2113 
L 3513 0 
L 2938 0 
L 2938 2094 
Q 2938 2591 2744 2837 
Q 2550 3084 2163 3084 
Q 1697 3084 1428 2787 
Q 1159 2491 1159 1978 
L 1159 0 
L 581 0 
L 581 4863 
L 1159 4863 
L 1159 2956 
Q 1366 3272 1645 3428 
Q 1925 3584 2291 3584 
Q 2894 3584 3203 3211 
Q 3513 2838 3513 2113 
z
" transform="scale(0.015625)"/>
       <path id="DejaVuSans-42" d="M 3263 -1063 
L 3263 -1509 
L -63 -1509 
L -63 -1063 
L 3263 -1063 
z
" transform="scale(0.015625)"/>
      </defs>
      <use xlink:href="#DejaVuSans-53"/>
      <use xlink:href="#DejaVuSans-44" transform="translate(63.484375 0)"/>
      <use xlink:href="#DejaVuSans-57" transform="translate(124.765625 0)"/>
      <use xlink:href="#DejaVuSans-46" transform="translate(163.96875 0)"/>
      <use xlink:href="#DejaVuSans-4b" transform="translate(218.953125 0)"/>
      <use xlink:href="#DejaVuSans-57" transform="translate(282.328125 0)"/>
      <use xlink:href="#DejaVuSans-56" transform="translate(321.53125 0)"/>
      <use xlink:href="#DejaVuSans-57" transform="translate(373.625 0)"/>
      <use xlink:href="#DejaVuSans-42" transform="translate(412.828125 0)"/>
      <use xlink:href="#DejaVuSans-56" transform="translate(462.828125 0)"/>
      <use xlink:href="#DejaVuSans-48" transform="translate(514.921875 0)"/>
      <use xlink:href="#DejaVuSans-51" transform="translate(576.453125 0)"/>
      <use xlink:href="#DejaVuSans-56" transform="translate(639.828125 0)"/>
      <use xlink:href="#DejaVuSans-52" transform="translate(691.921875 0)"/>
      <use xlink:href="#DejaVuSans-55" transform="translate(753.109375 0)"/>
      <use xlink:href="#DejaVuSans-42" transform="translate(794.21875 0)"/>
      <use xlink:href="#DejaVuSans-55" transform="translate(844.21875 0)"/>
      <use xlink:href="#DejaVuSans-48" transform="translate(883.125 0)"/>
      <use xlink:href="#DejaVuSans-4a" transform="translate(944.65625 0)"/>
      <use xlink:href="#DejaVuSans-55" transform="translate(1008.140625 0)"/>
      <use xlink:href="#DejaVuSans-48" transform="translate(1047.046875 0)"/>
      <use xlink:href="#DejaVuSans-56" transform="translate(1108.578125 0)"/>
      <use xlink:href="#DejaVuSans-56" transform="translate(1160.671875 0)"/>
      <use xlink:href="#DejaVuSans-4c" transform="translate(1212.765625 0)"/>
      <use xlink:href="#DejaVuSans-52" transform="translate(1240.546875 0)"/>
      <use xlink:href="#DejaVuSans-51" transform="translate(1301.734375 0)"/>
     </g>
    </g>
    <g id="line2d_35">
     <path d="M 358.605781 45.557344 
L 366.605781 45.557344 
L 374.605781 45.557344 
" style="fill: none; stroke: #2a788e; stroke-width: 1.5; stroke-linecap: square"/>
     <g>
      <use xlink:href="#m1be6db96d7" x="366.605781" y="45.557344" style="fill: #2a788e; stroke: #2a788e"/>
     </g>
    </g>
    <g id="text_20">
     <!-- provisional_target -->
     <g transform="translate(381.005781 48.357344) scale(0.08 -0.08)">
      <defs>
       <path id="DejaVuSans-59" d="M 191 3500 
L 800 3500 
L 1894 563 
L 2988 3500 
L 3597 3500 
L 2284 0 
L 1503 0 
L 191 3500 
z
" transform="scale(0.015625)"/>
       <path id="DejaVuSans-4f" d="M 603 4863 
L 1178 4863 
L 1178 0 
L 603 0 
L 603 4863 
z
" transform="scale(0.015625)"/>
      </defs>
      <use xlink:href="#DejaVuSans-53"/>
      <use xlink:href="#DejaVuSans-55" transform="translate(63.484375 0)"/>
      <use xlink:href="#DejaVuSans-52" transform="translate(102.390625 0)"/>
      <use xlink:href="#DejaVuSans-59" transform="translate(163.578125 0)"/>
      <use xlink:href="#DejaVuSans-4c" transform="translate(222.765625 0)"/>
      <use xlink:href="#DejaVuSans-56" transform="translate(250.546875 0)"/>
      <use xlink:href="#DejaVuSans-4c" transform="translate(302.640625 0)"/>
      <use xlink:href="#DejaVuSans-52" transform="translate(330.421875 0)"/>
      <use xlink:href="#DejaVuSans-51" transform="translate(391.609375 0)"/>
      <use xlink:href="#DejaVuSans-44" transform="translate(454.984375 0)"/>
      <use xlink:href="#DejaVuSans-4f" transform="translate(516.265625 0)"/>
      <use xlink:href="#DejaVuSans-42" transform="translate(544.046875 0)"/>
      <use xlink:href="#DejaVuSans-57" transform="translate(594.046875 0)"/>
      <use xlink:href="#DejaVuSans-44" transform="translate(633.25 0)"/>
      <use xlink:href="#DejaVuSans-55" transform="translate(694.53125 0)"/>
      <use xlink:href="#DejaVuSans-4a" transform="translate(733.890625 0)"/>
      <use xlink:href="#DejaVuSans-48" transform="translate(797.375 0)"/>
      <use xlink:href="#DejaVuSans-57" transform="translate(858.90625 0)"/>
     </g>
    </g>
    <g id="line2d_36">
     <path d="M 358.605781 57.557969 
L 366.605781 57.557969 
L 374.605781 57.557969 
" style="fill: none; stroke: #56a86c; stroke-width: 1.5; stroke-linecap: square"/>
     <g>
      <use xlink:href="#m5d7aebfb3f" x="366.605781" y="57.557969" style="fill: #56a86c; stroke: #56a86c"/>
     </g>
    </g>
    <g id="text_21">
     <!-- sensor_ridge_run_summary -->
     <g transform="translate(381.005781 60.357969) scale(0.08 -0.08)">
      <use xlink:href="#DejaVuSans-56"/>
      <use xlink:href="#DejaVuSans-48" transform="translate(52.09375 0)"/>
      <use xlink:href="#DejaVuSans-51" transform="translate(113.625 0)"/>
      <use xlink:href="#DejaVuSans-56" transform="translate(177 0)"/>
      <use xlink:href="#DejaVuSans-52" transform="translate(229.09375 0)"/>
      <use xlink:href="#DejaVuSans-55" transform="translate(290.28125 0)"/>
      <use xlink:href="#DejaVuSans-42" transform="translate(331.390625 0)"/>
      <use xlink:href="#DejaVuSans-55" transform="translate(381.390625 0)"/>
      <use xlink:href="#DejaVuSans-4c" transform="translate(422.5 0)"/>
      <use xlink:href="#DejaVuSans-47" transform="translate(450.28125 0)"/>
      <use xlink:href="#DejaVuSans-4a" transform="translate(513.765625 0)"/>
      <use xlink:href="#DejaVuSans-48" transform="translate(577.25 0)"/>
      <use xlink:href="#DejaVuSans-42" transform="translate(638.78125 0)"/>
      <use xlink:href="#DejaVuSans-55" transform="translate(688.78125 0)"/>
      <use xlink:href="#DejaVuSans-58" transform="translate(729.890625 0)"/>
      <use xlink:href="#DejaVuSans-51" transform="translate(793.265625 0)"/>
      <use xlink:href="#DejaVuSans-42" transform="translate(856.640625 0)"/>
      <use xlink:href="#DejaVuSans-56" transform="translate(906.640625 0)"/>
      <use xlink:href="#DejaVuSans-58" transform="translate(958.734375 0)"/>
      <use xlink:href="#DejaVuSans-50" transform="translate(1022.109375 0)"/>
      <use xlink:href="#DejaVuSans-50" transform="translate(1119.515625 0)"/>
      <use xlink:href="#DejaVuSans-44" transform="translate(1216.921875 0)"/>
      <use xlink:href="#DejaVuSans-55" transform="translate(1278.203125 0)"/>
      <use xlink:href="#DejaVuSans-5c" transform="translate(1319.3125 0)"/>
     </g>
    </g>
   </g>
  </g>
 </g>
 <defs>
  <clipPath id="p73ca1d397c">
   <rect x="40.925781" y="23.077969" width="457.56" height="266.112"/>
  </clipPath>
 </defs>
</svg>
